<svg width="49" height="49" viewBox="0 0 49 49" fill="none" xmlns="http://www.w3.org/2000/svg">
<path d="M16.4256 39.9672C16.4256 43.9489 13.2147 47.1766 9.2538 47.1766C5.29294 47.1766 2.08203 43.9489 2.08203 39.9672C2.08203 35.9856 5.29294 32.7578 9.2538 32.7578C13.2147 32.7578 16.4256 35.9856 16.4256 39.9672ZM16.4256 39.9672L15.2961 8.22135C15.2961 7.24253 16.002 6.40488 16.962 6.24488L43.9361 2.02841C45.1032 1.83077 46.1856 2.68724 46.2609 3.88253L47.2585 39.9672M47.2585 39.9672C47.2585 43.9489 44.0476 47.1766 40.0867 47.1766C36.1259 47.1766 32.915 43.9489 32.915 39.9672C32.915 35.9856 36.1259 32.7578 40.0867 32.7578C44.0476 32.7578 47.2585 35.9856 47.2585 39.9672ZM15.5314 14.7343L46.4303 10.0472" stroke="#A8FB5A" stroke-width="3" stroke-miterlimit="10"/>
</svg>
