<svg width="1112" height="300" viewBox="0 0 1112 300" fill="none" xmlns="http://www.w3.org/2000/svg">
<path d="M96.1675 14C89.9326 35.0756 84.1428 59.4103 86.8152 81.7896" stroke="#E694FF" stroke-width="10" stroke-linecap="round"/>
<path d="M117.978 14C111.743 35.0756 105.953 59.4103 108.626 81.7896" stroke="#E694FF" stroke-width="10" stroke-linecap="round"/>
<path d="M72 40.5262C79.2902 37.0795 90.8391 32.6588 125.053 34.457" stroke="#E694FF" stroke-width="10" stroke-linecap="round"/>
<path d="M76.7148 62.3368C85.334 58.5555 99.9867 54.107 127.999 56.5536" stroke="#E694FF" stroke-width="10" stroke-linecap="round"/>
<path d="M144.932 54.064H155.844L162.444 96.92L167.372 54.064H179.34L170.1 111H156.108L150.388 76.064L144.668 111H130.676L121.436 54.064H133.404L138.332 96.92L144.932 54.064ZM206.007 67.176C213.281 67.176 216.919 71.048 216.919 78.792V92.696H196.943V101.672C196.943 102.141 197.089 102.552 197.383 102.904C197.735 103.256 198.145 103.432 198.615 103.432H203.455C203.924 103.432 204.305 103.256 204.599 102.904C204.951 102.552 205.127 102.141 205.127 101.672V96.92H216.919V100.264C216.919 108.008 213.281 111.88 206.007 111.88H196.063C188.788 111.88 185.151 108.008 185.151 100.264V78.792C185.151 71.048 188.788 67.176 196.063 67.176H206.007ZM196.943 84.952H205.127V77.032C205.127 76.5627 204.951 76.152 204.599 75.8C204.305 75.448 203.924 75.272 203.455 75.272H198.615C198.145 75.272 197.735 75.448 197.383 75.8C197.089 76.152 196.943 76.5627 196.943 77.032V84.952ZM243.105 84.072C250.38 84.072 254.017 87.944 254.017 95.688V100.264C254.017 108.008 250.38 111.88 243.105 111.88H233.337C226.062 111.88 222.425 108.008 222.425 100.264V97.536H233.337V101.408C233.337 101.877 233.484 102.288 233.777 102.64C234.129 102.992 234.54 103.168 235.009 103.168H242.225C242.694 103.168 243.076 102.992 243.369 102.64C243.721 102.288 243.897 101.877 243.897 101.408V96.128C243.897 95.6587 243.721 95.248 243.369 94.896C243.076 94.544 242.694 94.368 242.225 94.368H233.161C225.886 94.368 222.249 90.496 222.249 82.752V78.792C222.249 71.048 225.886 67.176 233.161 67.176H242.401C249.676 67.176 253.313 71.048 253.313 78.792V80.376H242.401V77.648C242.401 77.1787 242.225 76.768 241.873 76.416C241.58 76.064 241.198 75.888 240.729 75.888H234.041C233.572 75.888 233.161 76.064 232.809 76.416C232.516 76.768 232.369 77.1787 232.369 77.648V82.312C232.369 82.7813 232.516 83.192 232.809 83.544C233.161 83.896 233.572 84.072 234.041 84.072H243.105ZM276.071 104.224H279.591V111.88H271.319C264.045 111.88 260.407 108.008 260.407 100.264V58.728H272.199V68.056H279.591V76.592H272.199V100C272.199 101.643 272.522 102.757 273.167 103.344C273.813 103.931 274.781 104.224 276.071 104.224ZM306.087 67.176C313.362 67.176 316.999 71.048 316.999 78.792V92.696H297.023V101.672C297.023 102.141 297.17 102.552 297.463 102.904C297.815 103.256 298.226 103.432 298.695 103.432H303.535C304.004 103.432 304.386 103.256 304.679 102.904C305.031 102.552 305.207 102.141 305.207 101.672V96.92H316.999V100.264C316.999 108.008 313.362 111.88 306.087 111.88H296.143C288.868 111.88 285.231 108.008 285.231 100.264V78.792C285.231 71.048 288.868 67.176 296.143 67.176H306.087ZM297.023 84.952H305.207V77.032C305.207 76.5627 305.031 76.152 304.679 75.8C304.386 75.448 304.004 75.272 303.535 75.272H298.695C298.226 75.272 297.815 75.448 297.463 75.8C297.17 76.152 297.023 76.5627 297.023 77.032V84.952ZM341.249 67.176H343.537V78.616H337.729C335.734 78.616 334.737 79.6427 334.737 81.696V111H322.945V68.056H333.681V72.192C335.382 68.848 337.905 67.176 341.249 67.176ZM360.076 111H348.284V68.056H359.02V70.256C360.839 68.2027 363.596 67.176 367.292 67.176H369.14C376.415 67.176 380.052 71.048 380.052 78.792V111H368.26V77.384C368.26 76.9147 368.084 76.504 367.732 76.152C367.439 75.8 367.058 75.624 366.588 75.624H361.748C361.279 75.624 360.868 75.8 360.516 76.152C360.223 76.504 360.076 76.9147 360.076 77.384V111ZM651.624 54.064L650.48 72.28H642.56L641.504 54.064H651.624ZM680.022 84.072C687.297 84.072 690.934 87.944 690.934 95.688V100.264C690.934 108.008 687.297 111.88 680.022 111.88H670.254C662.98 111.88 659.342 108.008 659.342 100.264V97.536H670.254V101.408C670.254 101.877 670.401 102.288 670.694 102.64C671.046 102.992 671.457 103.168 671.926 103.168H679.142C679.612 103.168 679.993 102.992 680.286 102.64C680.638 102.288 680.814 101.877 680.814 101.408V96.128C680.814 95.6587 680.638 95.248 680.286 94.896C679.993 94.544 679.612 94.368 679.142 94.368H670.078C662.804 94.368 659.166 90.496 659.166 82.752V78.792C659.166 71.048 662.804 67.176 670.078 67.176H679.318C686.593 67.176 690.23 71.048 690.23 78.792V80.376H679.318V77.648C679.318 77.1787 679.142 76.768 678.79 76.416C678.497 76.064 678.116 75.888 677.646 75.888H670.958C670.489 75.888 670.078 76.064 669.726 76.416C669.433 76.768 669.286 77.1787 669.286 77.648V82.312C669.286 82.7813 669.433 83.192 669.726 83.544C670.078 83.896 670.489 84.072 670.958 84.072H680.022ZM737.202 54.064C744.476 54.064 748.114 57.936 748.114 65.68V77.032C748.114 84.776 744.476 88.648 737.202 88.648H727.258V111H714.938V54.064H737.202ZM735.794 78.44V64.272C735.794 63.8027 735.618 63.392 735.266 63.04C734.972 62.688 734.591 62.512 734.122 62.512H727.258V80.2H734.122C734.591 80.2 734.972 80.024 735.266 79.672C735.618 79.32 735.794 78.9093 735.794 78.44ZM771.635 67.176H773.923V78.616H768.115C766.12 78.616 765.123 79.6427 765.123 81.696V111H753.331V68.056H764.067V72.192C765.768 68.848 768.291 67.176 771.635 67.176ZM799.526 67.176C806.801 67.176 810.438 71.048 810.438 78.792V92.696H790.462V101.672C790.462 102.141 790.609 102.552 790.902 102.904C791.254 103.256 791.665 103.432 792.134 103.432H796.974C797.444 103.432 797.825 103.256 798.118 102.904C798.47 102.552 798.646 102.141 798.646 101.672V96.92H810.438V100.264C810.438 108.008 806.801 111.88 799.526 111.88H789.582C782.308 111.88 778.67 108.008 778.67 100.264V78.792C778.67 71.048 782.308 67.176 789.582 67.176H799.526ZM790.462 84.952H798.646V77.032C798.646 76.5627 798.47 76.152 798.118 75.8C797.825 75.448 797.444 75.272 796.974 75.272H792.134C791.665 75.272 791.254 75.448 790.902 75.8C790.609 76.152 790.462 76.5627 790.462 77.032V84.952ZM855.104 67.176C862.379 67.176 866.016 71.048 866.016 78.792V111H854.224V77.384C854.224 76.9147 854.048 76.504 853.696 76.152C853.403 75.8 853.022 75.624 852.552 75.624H848.768C848.299 75.624 847.888 75.8 847.536 76.152C847.243 76.504 847.096 76.9147 847.096 77.384V111H835.304V77.384C835.304 76.9147 835.128 76.504 834.776 76.152C834.483 75.8 834.102 75.624 833.632 75.624H829.848C829.379 75.624 828.968 75.8 828.616 76.152C828.323 76.504 828.176 76.9147 828.176 77.384V111H816.384V68.056H827.12V70.256C828.939 68.2027 831.696 67.176 835.392 67.176H836.184C840.526 67.176 843.547 68.5253 845.248 71.224C847.067 68.5253 850.088 67.176 854.312 67.176H855.104ZM886.004 62.688C884.772 63.92 883.276 64.536 881.516 64.536C879.756 64.536 878.231 63.92 876.94 62.688C875.649 61.3973 875.004 59.872 875.004 58.112C875.004 56.2933 875.649 54.768 876.94 53.536C878.231 52.2453 879.756 51.6 881.516 51.6C883.276 51.6 884.772 52.2453 886.004 53.536C887.295 54.768 887.94 56.2933 887.94 58.112C887.94 59.9307 887.295 61.456 886.004 62.688ZM875.62 111V68.056H887.412V111H875.62ZM916.02 67.176C923.295 67.176 926.932 71.048 926.932 78.792V92.696H906.956V101.672C906.956 102.141 907.103 102.552 907.396 102.904C907.748 103.256 908.159 103.432 908.628 103.432H913.468C913.938 103.432 914.319 103.256 914.612 102.904C914.964 102.552 915.14 102.141 915.14 101.672V96.92H926.932V100.264C926.932 108.008 923.295 111.88 916.02 111.88H906.076C898.802 111.88 895.164 108.008 895.164 100.264V78.792C895.164 71.048 898.802 67.176 906.076 67.176H916.02ZM906.956 84.952H915.14V77.032C915.14 76.5627 914.964 76.152 914.612 75.8C914.319 75.448 913.938 75.272 913.468 75.272H908.628C908.159 75.272 907.748 75.448 907.396 75.8C907.103 76.152 906.956 76.5627 906.956 77.032V84.952ZM951.183 67.176H953.471V78.616H947.663C945.668 78.616 944.671 79.6427 944.671 81.696V111H932.879V68.056H943.615V72.192C945.316 68.848 947.839 67.176 951.183 67.176ZM979.074 67.176C986.348 67.176 989.986 71.048 989.986 78.792V92.696H970.01V101.672C970.01 102.141 970.156 102.552 970.45 102.904C970.802 103.256 971.212 103.432 971.682 103.432H976.522C976.991 103.432 977.372 103.256 977.666 102.904C978.018 102.552 978.194 102.141 978.194 101.672V96.92H989.986V100.264C989.986 108.008 986.348 111.88 979.074 111.88H969.13C961.855 111.88 958.218 108.008 958.218 100.264V78.792C958.218 71.048 961.855 67.176 969.13 67.176H979.074ZM970.01 84.952H978.194V77.032C978.194 76.5627 978.018 76.152 977.666 75.8C977.372 75.448 976.991 75.272 976.522 75.272H971.682C971.212 75.272 970.802 75.448 970.45 75.8C970.156 76.152 970.01 76.5627 970.01 77.032V84.952Z" fill="#F5F5F5"/>
<path d="M426.454 101.672V92.872H438.158V100.264C438.158 108.008 434.521 111.88 427.246 111.88H416.158C408.884 111.88 405.246 108.008 405.246 100.264V64.8C405.246 57.056 408.884 53.184 416.158 53.184H427.246C434.521 53.184 438.158 57.056 438.158 64.8V70.168H426.454V63.304C426.454 62.8347 426.278 62.424 425.926 62.072C425.633 61.72 425.252 61.544 424.782 61.544H419.238C418.769 61.544 418.358 61.72 418.006 62.072C417.713 62.424 417.566 62.8347 417.566 63.304V101.672C417.566 102.141 417.713 102.552 418.006 102.904C418.358 103.256 418.769 103.432 419.238 103.432H424.782C425.252 103.432 425.633 103.256 425.926 102.904C426.278 102.552 426.454 102.141 426.454 101.672ZM466.407 68.056H476.351V111H466.407V107.832C464.588 110.531 461.567 111.88 457.343 111.88H455.495C448.22 111.88 444.583 108.008 444.583 100.264V78.792C444.583 71.048 448.22 67.176 455.495 67.176H457.343C461.567 67.176 464.588 68.5253 466.407 71.224V68.056ZM464.559 101.672V77.384C464.559 76.9147 464.383 76.504 464.031 76.152C463.738 75.8 463.356 75.624 462.887 75.624H458.047C457.578 75.624 457.167 75.8 456.815 76.152C456.522 76.504 456.375 76.9147 456.375 77.384V101.672C456.375 102.141 456.522 102.552 456.815 102.904C457.167 103.256 457.578 103.432 458.047 103.432H462.887C463.356 103.432 463.738 103.256 464.031 102.904C464.383 102.552 464.559 102.141 464.559 101.672ZM495.636 111H483.844V68.056H494.58V70.256C496.399 68.2027 499.156 67.176 502.852 67.176H504.7C511.975 67.176 515.612 71.048 515.612 78.792V111H503.82V77.384C503.82 76.9147 503.644 76.504 503.292 76.152C502.999 75.8 502.617 75.624 502.148 75.624H497.308C496.839 75.624 496.428 75.8 496.076 76.152C495.783 76.504 495.636 76.9147 495.636 77.384V111ZM544.929 68.056H554.873V111H544.929V107.832C543.11 110.531 540.089 111.88 535.865 111.88H534.017C526.742 111.88 523.105 108.008 523.105 100.264V78.792C523.105 71.048 526.742 67.176 534.017 67.176H535.865C540.089 67.176 543.11 68.5253 544.929 71.224V68.056ZM543.081 101.672V77.384C543.081 76.9147 542.905 76.504 542.553 76.152C542.26 75.8 541.878 75.624 541.409 75.624H536.569C536.1 75.624 535.689 75.8 535.337 76.152C535.044 76.504 534.897 76.9147 534.897 77.384V101.672C534.897 102.141 535.044 102.552 535.337 102.904C535.689 103.256 536.1 103.432 536.569 103.432H541.409C541.878 103.432 542.26 103.256 542.553 102.904C542.905 102.552 543.081 102.141 543.081 101.672ZM575.126 67.176C578.118 67.176 580.524 67.88 582.342 69.288V54.064H594.134V111H584.19V107.832C582.372 110.531 579.35 111.88 575.126 111.88H573.278C566.004 111.88 562.366 108.008 562.366 100.264V78.792C562.366 71.048 566.004 67.176 573.278 67.176H575.126ZM582.342 101.672V77.384C582.342 76.9147 582.166 76.504 581.814 76.152C581.521 75.8 581.14 75.624 580.67 75.624H575.83C575.361 75.624 574.95 75.8 574.598 76.152C574.305 76.504 574.158 76.9147 574.158 77.384V101.672C574.158 102.141 574.305 102.552 574.598 102.904C574.95 103.256 575.361 103.432 575.83 103.432H580.67C581.14 103.432 581.521 103.256 581.814 102.904C582.166 102.552 582.342 102.141 582.342 101.672ZM623.451 68.056H633.395V111H623.451V107.832C621.633 110.531 618.611 111.88 614.387 111.88H612.539C605.265 111.88 601.627 108.008 601.627 100.264V78.792C601.627 71.048 605.265 67.176 612.539 67.176H614.387C618.611 67.176 621.633 68.5253 623.451 71.224V68.056ZM621.603 101.672V77.384C621.603 76.9147 621.427 76.504 621.075 76.152C620.782 75.8 620.401 75.624 619.931 75.624H615.091C614.622 75.624 614.211 75.8 613.859 76.152C613.566 76.504 613.419 76.9147 613.419 77.384V101.672C613.419 102.141 613.566 102.552 613.859 102.904C614.211 103.256 614.622 103.432 615.091 103.432H619.931C620.401 103.432 620.782 103.256 621.075 102.904C621.427 102.552 621.603 102.141 621.603 101.672Z" fill="#FDDE6C"/>
<path d="M78.8162 255.888V240.688H99.0322V253.456C99.0322 266.832 92.7495 273.52 80.1842 273.52H61.0322C48.4668 273.52 42.1842 266.832 42.1842 253.456V192.2C42.1842 178.824 48.4668 172.136 61.0322 172.136H80.1842C92.7495 172.136 99.0322 178.824 99.0322 192.2V201.472H78.8162V189.616C78.8162 188.805 78.5122 188.096 77.9042 187.488C77.3975 186.88 76.7388 186.576 75.9282 186.576H66.3522C65.5415 186.576 64.8322 186.88 64.2242 187.488C63.7175 188.096 63.4642 188.805 63.4642 189.616V255.888C63.4642 256.699 63.7175 257.408 64.2242 258.016C64.8322 258.624 65.5415 258.928 66.3522 258.928H75.9282C76.7388 258.928 77.3975 258.624 77.9042 258.016C78.5122 257.408 78.8162 256.699 78.8162 255.888ZM129.585 272H109.217V173.656H129.585V272ZM196.258 216.368V253.456C196.258 266.832 189.975 273.52 177.41 273.52H160.234C147.668 273.52 141.386 266.832 141.386 253.456V216.368C141.386 202.992 147.668 196.304 160.234 196.304H177.41C189.975 196.304 196.258 202.992 196.258 216.368ZM175.89 257.712V211.96C175.89 211.149 175.586 210.44 174.978 209.832C174.471 209.224 173.812 208.92 173.002 208.92H164.642C163.831 208.92 163.122 209.224 162.514 209.832C162.007 210.44 161.754 211.149 161.754 211.96V257.712C161.754 258.523 162.007 259.232 162.514 259.84C163.122 260.448 163.831 260.752 164.642 260.752H173.002C173.812 260.752 174.471 260.448 174.978 259.84C175.586 259.232 175.89 258.523 175.89 257.712ZM242.792 197.824H263.16V272H244.616V268.2C241.475 271.747 236.712 273.52 230.328 273.52H227.136C214.571 273.52 208.288 266.832 208.288 253.456V197.824H228.656V255.888C228.656 256.699 228.909 257.408 229.416 258.016C230.024 258.624 230.733 258.928 231.544 258.928H239.904C240.715 258.928 241.373 258.624 241.88 258.016C242.488 257.408 242.792 256.699 242.792 255.888V197.824ZM297.231 196.304C302.399 196.304 306.553 197.52 309.695 199.952V173.656H330.063V272H312.887V266.528C309.745 271.189 304.527 273.52 297.231 273.52H294.039C281.473 273.52 275.191 266.832 275.191 253.456V216.368C275.191 202.992 281.473 196.304 294.039 196.304H297.231ZM309.695 255.888V213.936C309.695 213.125 309.391 212.416 308.783 211.808C308.276 211.2 307.617 210.896 306.807 210.896H298.447C297.636 210.896 296.927 211.2 296.319 211.808C295.812 212.416 295.559 213.125 295.559 213.936V255.888C295.559 256.699 295.812 257.408 296.319 258.016C296.927 258.624 297.636 258.928 298.447 258.928H306.807C307.617 258.928 308.276 258.624 308.783 258.016C309.391 257.408 309.695 256.699 309.695 255.888Z" fill="#5CB3FF"/>
<path d="M426.324 199.496H406.108V191.744C406.108 190.933 405.804 190.224 405.196 189.616C404.689 189.008 404.03 188.704 403.22 188.704H394.86C394.049 188.704 393.34 189.008 392.732 189.616C392.225 190.224 391.972 190.933 391.972 191.744V209.224C391.972 210.035 392.225 210.744 392.732 211.352C393.34 211.96 394.049 212.264 394.86 212.264H408.54C421.105 212.467 427.388 219.155 427.388 232.328V253.456C427.388 266.832 421.105 273.52 408.54 273.52H390.604C378.038 273.52 371.756 266.832 371.756 253.456V243.272H391.972V254.216C391.972 255.027 392.225 255.736 392.732 256.344C393.34 256.952 394.049 257.256 394.86 257.256H404.284C405.094 257.256 405.753 256.952 406.26 256.344C406.868 255.736 407.172 255.027 407.172 254.216V234.912C407.172 234.101 406.868 233.392 406.26 232.784C405.753 232.176 405.094 231.872 404.284 231.872H390.604C378.038 231.872 371.756 225.184 371.756 211.808V192.2C371.756 178.824 378.038 172.136 390.604 172.136H407.476C420.041 172.136 426.324 178.824 426.324 192.2V199.496ZM473.293 197.824H493.661V272H475.117V268.2C471.976 271.747 467.213 273.52 460.829 273.52H457.637C445.072 273.52 438.789 266.832 438.789 253.456V197.824H459.157V255.888C459.157 256.699 459.41 257.408 459.917 258.016C460.525 258.624 461.234 258.928 462.045 258.928H470.405C471.216 258.928 471.874 258.624 472.381 258.016C472.989 257.408 473.293 256.699 473.293 255.888V197.824ZM572.572 196.304C585.137 196.304 591.42 202.992 591.42 216.368V272H571.052V213.936C571.052 213.125 570.748 212.416 570.14 211.808C569.633 211.2 568.974 210.896 568.164 210.896H561.628C560.817 210.896 560.108 211.2 559.5 211.808C558.993 212.416 558.74 213.125 558.74 213.936V272H538.372V213.936C538.372 213.125 538.068 212.416 537.46 211.808C536.953 211.2 536.294 210.896 535.484 210.896H528.948C528.137 210.896 527.428 211.2 526.82 211.808C526.313 212.416 526.06 213.125 526.06 213.936V272H505.692V197.824H524.236V201.624C527.377 198.077 532.14 196.304 538.524 196.304H539.892C547.39 196.304 552.609 198.635 555.548 203.296C558.689 198.635 563.908 196.304 571.204 196.304H572.572ZM671.24 196.304C683.805 196.304 690.088 202.992 690.088 216.368V272H669.72V213.936C669.72 213.125 669.416 212.416 668.808 211.808C668.301 211.2 667.642 210.896 666.832 210.896H660.296C659.485 210.896 658.776 211.2 658.168 211.808C657.661 212.416 657.408 213.125 657.408 213.936V272H637.04V213.936C637.04 213.125 636.736 212.416 636.128 211.808C635.621 211.2 634.962 210.896 634.152 210.896H627.616C626.805 210.896 626.096 211.2 625.488 211.808C624.981 212.416 624.728 213.125 624.728 213.936V272H604.36V197.824H622.904V201.624C626.045 198.077 630.808 196.304 637.192 196.304H638.56C646.058 196.304 651.277 198.635 654.216 203.296C657.357 198.635 662.576 196.304 669.872 196.304H671.24ZM723.7 188.552C721.572 190.68 718.988 191.744 715.948 191.744C712.908 191.744 710.273 190.68 708.044 188.552C705.815 186.323 704.7 183.688 704.7 180.648C704.7 177.507 705.815 174.872 708.044 172.744C710.273 170.515 712.908 169.4 715.948 169.4C718.988 169.4 721.572 170.515 723.7 172.744C725.929 174.872 727.044 177.507 727.044 180.648C727.044 183.789 725.929 186.424 723.7 188.552ZM705.764 272V197.824H726.132V272H705.764ZM765.666 260.296H771.746V273.52H757.458C744.893 273.52 738.61 266.832 738.61 253.456V181.712H758.978V197.824H771.746V212.568H758.978V253C758.978 255.837 759.535 257.763 760.65 258.776C761.765 259.789 763.437 260.296 765.666 260.296Z" fill="#F5F5F5"/>
<path d="M831.062 238.256V254.52H863.894V272H811.606V236.584C811.606 223.208 817.888 216.52 830.454 216.52H842.614C843.424 216.52 844.083 216.216 844.59 215.608C845.198 215 845.502 214.291 845.502 213.48V191.744C845.502 190.933 845.198 190.224 844.59 189.616C844.083 189.008 843.424 188.704 842.614 188.704H833.646C832.835 188.704 832.126 189.008 831.518 189.616C831.011 190.224 830.758 190.933 830.758 191.744V199.496H810.542V192.2C810.542 178.824 816.824 172.136 829.39 172.136H846.262C858.827 172.136 865.11 178.824 865.11 192.2V215.152C865.11 228.528 858.827 235.216 846.262 235.216H833.95C833.139 235.216 832.43 235.52 831.822 236.128C831.315 236.736 831.062 237.445 831.062 238.256ZM934.706 192.2V253.456C934.706 266.832 928.423 273.52 915.858 273.52H897.77C885.204 273.52 878.922 266.832 878.922 253.456V192.2C878.922 178.824 885.204 172.136 897.77 172.136H915.858C928.423 172.136 934.706 178.824 934.706 192.2ZM914.034 255.888V189.616C914.034 188.805 913.73 188.096 913.122 187.488C912.615 186.88 911.956 186.576 911.146 186.576H902.482C901.671 186.576 900.962 186.88 900.354 187.488C899.847 188.096 899.594 188.805 899.594 189.616V255.888C899.594 256.699 899.847 257.408 900.354 258.016C900.962 258.624 901.671 258.928 902.482 258.928H911.146C911.956 258.928 912.615 258.624 913.122 258.016C913.73 257.408 914.034 256.699 914.034 255.888ZM966.797 238.256V254.52H999.629V272H947.341V236.584C947.341 223.208 953.623 216.52 966.189 216.52H978.349C979.159 216.52 979.818 216.216 980.325 215.608C980.933 215 981.237 214.291 981.237 213.48V191.744C981.237 190.933 980.933 190.224 980.325 189.616C979.818 189.008 979.159 188.704 978.349 188.704H969.381C968.57 188.704 967.861 189.008 967.253 189.616C966.746 190.224 966.493 190.933 966.493 191.744V199.496H946.277V192.2C946.277 178.824 952.559 172.136 965.125 172.136H981.997C994.562 172.136 1000.84 178.824 1000.84 192.2V215.152C1000.84 228.528 994.562 235.216 981.997 235.216H969.685C968.874 235.216 968.165 235.52 967.557 236.128C967.05 236.736 966.797 237.445 966.797 238.256ZM1033.35 189.92V207.4C1033.35 208.211 1033.61 208.92 1034.11 209.528C1034.72 210.136 1035.43 210.44 1036.24 210.44H1050.68C1063.25 210.44 1069.53 217.128 1069.53 230.504V253.456C1069.53 266.832 1063.25 273.52 1050.68 273.52H1033.81C1021.24 273.52 1014.96 266.832 1014.96 253.456V246.16H1035.18V253.912C1035.18 254.723 1035.43 255.432 1035.94 256.04C1036.54 256.648 1037.25 256.952 1038.06 256.952H1047.03C1047.84 256.952 1048.5 256.648 1049.01 256.04C1049.62 255.432 1049.92 254.723 1049.92 253.912V232.176C1049.92 231.365 1049.62 230.656 1049.01 230.048C1048.5 229.44 1047.84 229.136 1047.03 229.136H1032.74C1020.18 229.136 1013.9 222.448 1013.9 209.072V173.656H1065.58V189.92H1033.35Z" fill="#A8FB5A"/>
<path d="M188.746 194.54C167.601 189.43 156.993 191.96 148.691 194.54L138.436 159.65C137.96 158.032 139.578 156.588 141.132 157.244L155.344 163.244C156.283 163.641 157.369 163.268 157.867 162.379L167.534 145.116C168.298 143.752 170.26 143.752 171.024 145.116L180.633 162.275C181.155 163.207 182.317 163.565 183.273 163.087L197.831 155.808C199.364 155.041 200.993 156.401 200.436 158.023C197.74 165.859 192.197 180.161 188.746 194.54Z" fill="#FDDE6C" stroke="#1B221D" stroke-width="4" stroke-linecap="round"/>
<path d="M157.869 181.054C161.233 180.176 170.595 178.948 181.126 181.054" stroke="#1B221D" stroke-width="4" stroke-linecap="round"/>
<path d="M935.065 11.1235C934.801 10.3018 934.131 9.67433 933.294 9.4637C932.457 9.25308 931.571 9.48909 930.949 10.088C927.373 13.5352 926.328 17.4981 926.88 20.4204C927.124 21.7153 927.835 23.4317 929.49 24.1547C930.428 24.5648 931.478 24.5441 932.415 24.0879C933.275 23.6688 933.876 22.9688 934.289 22.2803C936.137 19.1965 936.292 14.9449 935.065 11.1235ZM992.337 29.7743C991.353 30.0429 990.631 30.8822 990.512 31.895C990.394 32.9079 990.902 33.8913 991.797 34.3801C992.992 35.0327 993.969 36.2562 994.701 37.7579C995.427 39.2452 995.789 40.7589 995.896 41.6141C996.039 42.7605 996.949 43.6595 998.097 43.7887C999.245 43.9179 1000.33 43.2437 1000.73 42.1578C1001.24 40.7466 1002.16 38.6378 1003.23 36.9299C1003.77 36.0698 1004.28 35.4166 1004.71 35.0076C1004.94 34.7981 1005.07 34.7132 1005.13 34.6826C1006.22 34.6258 1007.15 33.8687 1007.42 32.8043C1007.7 31.6973 1007.2 30.5395 1006.2 29.9919C1005.08 29.3812 1003.92 27.8579 1002.98 25.951C1002.54 25.0556 1002.2 24.1832 1001.98 23.4833C1001.81 22.9501 1001.74 22.6341 1001.72 22.5135C1001.71 22.4513 1001.7 22.4412 1001.7 22.4803C1001.7 21.3506 1000.95 20.3613 999.856 20.0667C998.766 19.7722 997.613 20.2457 997.045 21.2218C996.697 21.8175 996.355 22.7292 996.07 23.4893C996.046 23.5523 996.023 23.6143 996 23.6749C995.654 24.5915 995.281 25.5758 994.838 26.5258C994.391 27.4852 993.922 28.3014 993.433 28.8988C992.937 29.5042 992.561 29.713 992.337 29.7743Z" stroke="#FF5C7F" stroke-width="5" stroke-linecap="round" stroke-linejoin="round"/>
</svg>
