<svg width="1440" height="386" viewBox="0 0 1440 386" fill="none" xmlns="http://www.w3.org/2000/svg">
<path d="M1470.28 171.038L6.61183 88.3513L-6.34396 204.839L1432.7 275.139L1470.28 171.038Z" fill="#313539"/>
<path d="M1033.28 185.644L1030.3 194.488L1038.78 191.022C1040.49 190.324 1042.42 191.318 1042.84 193.114L1044.9 201.916C1045.38 203.943 1043.69 205.827 1041.63 205.58L1031.8 204.406L1037.69 211.477C1038.89 212.915 1038.5 215.088 1036.87 216.009L1030 219.891C1028.44 220.774 1026.46 220.098 1025.76 218.446L1022.55 210.827L1017.67 217.425C1016.59 218.884 1014.47 219.058 1013.16 217.793L1007.63 212.425C1006.35 211.178 1006.44 209.091 1007.82 207.954L1014.63 202.356L1006.83 200.816C1004.99 200.452 1003.93 198.505 1004.63 196.761L1007.66 189.155C1008.37 187.395 1010.51 186.719 1012.09 187.756L1020.62 193.332L1018.63 184.27C1018.19 182.254 1019.87 180.404 1021.92 180.649L1030.79 181.709C1032.68 181.934 1033.88 183.84 1033.28 185.644Z" fill="#4C5259"/>
<path d="M-8.46579 174.605C-14.5352 174.246 -19.0649 172.246 -22.0551 168.607C-24.9776 164.908 -26.2195 159.353 -25.7808 151.942L-24.5497 131.146C-24.1261 123.991 -22.2431 118.717 -18.9008 115.325C-15.4908 111.872 -10.7511 110.326 -4.68174 110.685C-0.401231 110.938 3.08972 112.075 5.79112 114.094C8.49251 116.113 10.3838 118.821 11.4648 122.219C12.6098 125.621 12.7944 129.543 12.0185 133.985C11.8454 134.744 11.5352 135.11 11.088 135.083L1.02558 134.488C0.322806 134.446 0.0598929 134.014 0.236838 133.191C0.711754 129.5 0.526784 126.669 -0.318072 124.695C-1.15915 122.658 -2.85745 121.564 -5.41297 121.412C-7.77684 121.272 -9.55287 122.033 -10.7411 123.694C-11.8616 125.294 -12.5429 128.139 -12.785 132.228L-13.9537 151.969C-14.2033 156.186 -13.8361 159.189 -12.8522 160.978C-11.8043 162.771 -10.1304 163.736 -7.83039 163.872C-5.14709 164.031 -3.32965 163.112 -2.37807 161.117C-1.42272 159.058 -0.906807 156.3 -0.830347 152.842C-0.845066 152.008 -0.532985 151.61 0.105896 151.647L9.97662 152.232C10.5516 152.266 10.8803 152.67 10.9627 153.444C11.133 160.314 9.56569 165.671 6.26078 169.514C3.02354 173.298 -1.88531 174.995 -8.46579 174.605ZM14.8989 175.411C14.26 175.373 14.029 174.943 14.206 174.12L30.7345 114.224C30.8963 113.657 31.2647 113.39 31.8397 113.424L44.6812 114.184C45.3201 114.222 45.6864 114.532 45.7802 115.115L55.0305 176.537C55.173 177.379 54.9248 177.781 54.2859 177.743L43.2652 177.09C42.6902 177.056 42.3559 176.748 42.2621 176.166L38.7191 138.546C38.5283 136.355 38.3374 134.164 38.1466 131.973C37.9595 129.718 37.8025 127.497 37.6755 125.31L37.4839 125.298C37.0358 127.452 36.6178 129.639 36.2299 131.86C35.8458 134.017 35.3958 136.202 34.8801 138.415L26.7373 175.246C26.6394 175.818 26.271 176.084 25.6321 176.047L14.8989 175.411ZM27.6495 163.087L29.8516 153.504L41.639 154.202L42.8868 163.989L27.6495 163.087ZM61.6396 178.178C61.0007 178.14 60.7039 177.738 60.7493 176.971L64.3291 116.501C64.3745 115.735 64.7167 115.37 65.3555 115.408L77.9096 116.151C78.4846 116.185 78.8208 116.462 78.9183 116.98L85.0519 146.579C85.4046 148.202 85.7459 150.018 86.0759 152.025C86.4735 153.971 86.8373 155.948 87.1673 157.955C87.4972 159.962 87.7465 161.708 87.9151 163.193L88.1067 163.204C88.1185 161.923 88.1134 160.384 88.0916 158.587C88.0697 156.791 88.0516 154.93 88.0373 153.006C88.0868 151.086 88.1326 149.229 88.1747 147.437C88.2806 145.648 88.3713 144.114 88.447 142.837L89.922 117.92C89.9636 117.217 90.3039 116.885 90.9427 116.923L100.047 117.462C100.75 117.503 101.08 117.876 101.039 118.578L97.4531 179.144C97.4077 179.911 97.0655 180.275 96.4267 180.238L83.9685 179.5C83.4574 179.47 83.1211 179.193 82.9597 178.671L76.6061 149.541C76.0059 146.684 75.4714 143.799 75.0027 140.887C74.6017 137.914 74.2475 135.232 73.9403 132.842L73.7486 132.831C73.7667 134.691 73.764 136.903 73.7405 139.466C73.717 142.029 73.6596 144.622 73.5684 147.245C73.5449 149.808 73.4783 152.016 73.3687 153.869L71.9617 177.635C71.9163 178.402 71.5422 178.764 70.8395 178.723L61.6396 178.178ZM103.896 180.68C103.257 180.642 103.026 180.211 103.203 179.389L119.731 119.493C119.893 118.925 120.261 118.658 120.836 118.693L133.678 119.453C134.317 119.491 134.683 119.801 134.777 120.383L144.027 181.805C144.17 182.647 143.922 183.049 143.283 183.011L132.262 182.359C131.687 182.325 131.353 182.017 131.259 181.434L127.716 143.815C127.525 141.624 127.334 139.433 127.143 137.242C126.956 134.987 126.799 132.765 126.672 130.578L126.481 130.567C126.033 132.72 125.615 134.907 125.227 137.128C124.842 139.285 124.393 141.47 123.877 143.684L115.734 180.515C115.636 181.086 115.268 181.353 114.629 181.315L103.896 180.68ZM116.646 168.356L118.848 158.773L130.636 159.471L131.883 169.258L116.646 168.356ZM150.828 183.458C150.061 183.413 149.701 183.007 149.746 182.24L153.326 121.77C153.371 121.003 153.777 120.643 154.544 120.688L168.248 121.499C175.467 121.927 180.767 124.452 184.148 129.076C187.532 133.636 188.96 140.388 188.43 149.333L187.954 157.383C187.394 166.838 185.187 173.792 181.333 178.244C177.48 182.696 172.039 184.714 165.011 184.298L150.828 183.458ZM162.191 173.456L165.353 173.643C168.739 173.844 171.282 172.584 172.982 169.864C174.686 167.079 175.713 162.716 176.065 156.775L176.547 148.629C176.865 143.263 176.303 139.222 174.86 136.508C173.482 133.798 171.004 132.337 167.426 132.125L164.647 131.961L162.191 173.456ZM190.365 185.799C189.727 185.761 189.496 185.33 189.673 184.508L206.201 124.612C206.363 124.044 206.731 123.777 207.306 123.812L220.148 124.572C220.787 124.61 221.153 124.92 221.247 125.502L230.497 186.924C230.64 187.766 230.391 188.168 229.752 188.13L218.732 187.478C218.157 187.444 217.822 187.136 217.729 186.553L214.186 148.934C213.995 146.743 213.804 144.552 213.613 142.361C213.426 140.106 213.269 137.884 213.142 135.697L212.95 135.686C212.502 137.839 212.084 140.026 211.696 142.247C211.312 144.404 210.862 146.589 210.347 148.803L202.204 185.634C202.106 186.205 201.738 186.472 201.099 186.434L190.365 185.799ZM203.116 173.475L205.318 163.892L217.106 164.59L218.353 174.377L203.116 173.475ZM234.359 153.302C233.656 153.26 233.393 152.828 233.57 152.005L239.488 126.774C239.657 126.079 240.061 125.751 240.7 125.788L252.104 126.464C252.551 126.49 252.831 126.635 252.944 126.898C253.124 127.101 253.171 127.392 253.084 127.772L243.999 152.911C243.833 153.542 243.431 153.839 242.792 153.801L234.359 153.302ZM270.844 191.14C266.755 190.898 263.508 189.968 261.104 188.352C258.767 186.675 257.17 184.4 256.315 181.529C255.526 178.597 255.406 175.224 255.952 171.409C256.065 170.583 256.409 170.186 256.984 170.22L266.759 170.799C267.334 170.833 267.567 171.232 267.457 171.994C267.043 174.663 267.174 176.786 267.85 178.365C268.593 179.883 269.859 180.696 271.648 180.801C273.309 180.9 274.552 180.493 275.375 179.58C276.198 178.667 276.674 177.124 276.803 174.952C276.913 173.099 276.688 171.483 276.128 170.104C275.637 168.664 274.718 167.391 273.373 166.286L265.602 159.479C262.735 157.001 260.645 154.409 259.33 151.703C258.016 148.996 257.506 145.696 257.801 141.803C258.16 136.823 259.728 133.07 262.507 130.541C265.285 128.013 269.261 126.902 274.436 127.209C280.25 127.553 284.436 129.403 286.994 132.76C289.556 136.054 290.409 140.592 289.554 146.375C289.437 147.266 289.059 147.693 288.42 147.655L278.55 147.07C277.911 147.033 277.65 146.568 277.767 145.678C278.155 143.457 278.041 141.591 277.425 140.08C276.877 138.509 275.804 137.676 274.207 137.581C272.865 137.502 271.785 137.887 270.965 138.736C270.213 139.525 269.75 140.843 269.577 142.692C269.467 144.545 269.758 146.133 270.449 147.456C271.144 148.716 272.1 149.894 273.317 150.992L281.004 157.602C283.081 159.328 284.71 161.059 285.889 162.796C287.073 164.468 287.859 166.342 288.249 168.417C288.707 170.431 288.853 172.844 288.686 175.655C288.308 180.954 286.693 184.962 283.839 187.678C280.99 190.33 276.658 191.484 270.844 191.14ZM327.258 194.48C321.188 194.12 316.659 192.121 313.668 188.482C310.746 184.783 309.504 179.228 309.943 171.817L311.174 151.021C311.597 143.866 313.48 138.592 316.823 135.199C320.233 131.747 324.972 130.2 331.042 130.56C335.322 130.813 338.813 131.949 341.515 133.968C344.216 135.988 346.107 138.696 347.188 142.094C348.333 145.496 348.518 149.417 347.742 153.859C347.569 154.618 347.259 154.985 346.811 154.958L336.749 154.362C336.046 154.321 335.783 153.889 335.96 153.066C336.435 149.375 336.25 146.543 335.405 144.57C334.564 142.533 332.866 141.438 330.31 141.287C327.947 141.147 326.171 141.908 324.982 143.568C323.862 145.169 323.181 148.014 322.938 152.102L321.77 171.844C321.52 176.06 321.887 179.063 322.871 180.853C323.919 182.646 325.593 183.61 327.893 183.746C330.576 183.905 332.394 182.987 333.345 180.992C334.301 178.933 334.817 176.174 334.893 172.717C334.878 171.883 335.19 171.484 335.829 171.522L345.7 172.106C346.275 172.141 346.604 172.545 346.686 173.319C346.856 180.189 345.289 185.546 341.984 189.389C338.747 193.172 333.838 194.869 327.258 194.48ZM355.207 195.557C354.504 195.516 354.175 195.112 354.221 194.345L357.8 133.875C357.846 133.108 358.22 132.746 358.923 132.787L368.697 133.366C369.4 133.407 369.729 133.812 369.684 134.578L366.665 185.561L381.807 186.457C382.51 186.499 382.838 186.903 382.793 187.67L382.299 196.007C382.254 196.774 381.88 197.136 381.177 197.095L355.207 195.557ZM405.96 199.139C399.891 198.78 395.363 196.748 392.376 193.045C389.454 189.346 388.195 184.079 388.6 177.243L389.91 155.105C390.322 148.142 392.198 142.995 395.536 139.667C398.939 136.342 403.675 134.859 409.744 135.219C415.813 135.578 420.341 137.609 423.328 141.312C426.314 145.015 427.601 150.348 427.189 157.312L425.878 179.45C425.474 186.286 423.57 191.366 420.168 194.691C416.765 198.015 412.029 199.498 405.96 199.139ZM406.595 188.406C408.959 188.546 410.731 187.849 411.912 186.316C413.096 184.719 413.8 182.036 414.023 178.267L415.283 156.992C415.51 153.159 415.128 150.411 414.136 148.75C413.148 147.025 411.472 146.092 409.109 145.952C406.809 145.816 405.034 146.544 403.786 148.137C402.605 149.67 401.902 152.353 401.675 156.187L400.415 177.461C400.192 181.231 400.574 183.978 401.562 185.703C402.618 187.369 404.295 188.269 406.595 188.406ZM451.113 201.812C445.044 201.453 440.614 199.395 437.823 195.64C435.032 191.884 433.852 186.365 434.283 179.082L436.689 138.449C436.73 137.746 437.071 137.413 437.709 137.451L447.772 138.047C448.347 138.081 448.613 138.449 448.572 139.152L446.183 179.498C445.938 183.65 446.245 186.586 447.105 188.303C448.029 190.025 449.577 190.95 451.749 191.079C453.985 191.211 455.631 190.475 456.688 188.871C457.808 187.27 458.492 184.394 458.737 180.241L461.126 139.895C461.167 139.193 461.508 138.86 462.147 138.898L472.113 139.488C472.752 139.526 473.051 139.896 473.009 140.599L470.604 181.232C470.172 188.515 468.318 193.855 465.039 197.251C461.825 200.651 457.183 202.171 451.113 201.812ZM479.626 202.923C478.859 202.877 478.499 202.471 478.544 201.705L482.124 141.235C482.169 140.468 482.575 140.107 483.342 140.153L497.046 140.964C504.265 141.391 509.565 143.917 512.946 148.541C516.33 153.101 517.758 159.853 517.228 168.797L516.752 176.847C516.192 186.303 513.985 193.256 510.131 197.709C506.278 202.161 500.837 204.179 493.809 203.763L479.626 202.923ZM490.989 192.921L494.151 193.108C497.537 193.309 500.08 192.049 501.78 189.328C503.484 186.544 504.511 182.181 504.863 176.24L505.345 168.094C505.663 162.727 505.101 158.687 503.659 155.973C502.28 153.263 499.802 151.802 496.225 151.59L493.445 151.426L490.989 192.921ZM551.775 207.771C547.686 207.529 544.439 206.599 542.034 204.983C539.697 203.306 538.101 201.031 537.245 198.16C536.457 195.228 536.336 191.855 536.883 188.041C536.996 187.214 537.34 186.817 537.915 186.851L547.69 187.43C548.265 187.464 548.497 187.863 548.388 188.625C547.974 191.294 548.104 193.417 548.78 194.996C549.524 196.514 550.79 197.327 552.579 197.433C554.24 197.531 555.482 197.124 556.306 196.211C557.129 195.298 557.605 193.755 557.734 191.583C557.843 189.73 557.618 188.114 557.059 186.735C556.567 185.295 555.649 184.022 554.304 182.917L546.532 176.11C543.666 173.632 541.575 171.04 540.261 168.334C538.947 165.627 538.437 162.327 538.731 158.434C539.09 153.455 540.659 149.701 543.437 147.172C546.215 144.644 550.192 143.533 555.367 143.84C561.181 144.184 565.367 146.034 567.925 149.391C570.487 152.685 571.34 157.223 570.485 163.007C570.368 163.897 569.99 164.324 569.351 164.286L559.48 163.701C558.842 163.664 558.581 163.199 558.697 162.309C559.085 160.088 558.971 158.222 558.356 156.711C557.807 155.14 556.735 154.307 555.138 154.212C553.796 154.133 552.715 154.518 551.896 155.367C551.144 156.156 550.681 157.475 550.507 159.323C550.398 161.176 550.688 162.764 551.379 164.087C552.074 165.347 553.03 166.525 554.248 167.623L561.934 174.233C564.012 175.959 565.641 177.69 566.82 179.427C568.003 181.099 568.79 182.973 569.18 185.048C569.638 187.062 569.783 189.475 569.617 192.286C569.239 197.585 567.623 201.593 564.77 204.309C561.92 206.961 557.588 208.115 551.775 207.771ZM594.199 210.283C588.13 209.923 583.7 207.866 580.909 204.11C578.118 200.355 576.938 194.835 577.369 187.552L579.774 146.919C579.816 146.217 580.156 145.884 580.795 145.922L590.857 146.518C591.432 146.552 591.699 146.92 591.658 147.623L589.269 187.968C589.023 192.121 589.33 195.056 590.19 196.774C591.114 198.496 592.662 199.421 594.834 199.549C597.071 199.682 598.717 198.946 599.774 197.341C600.894 195.741 601.577 192.864 601.823 188.711L604.212 148.366C604.253 147.663 604.593 147.331 605.232 147.369L615.199 147.959C615.838 147.996 616.136 148.367 616.095 149.07L613.689 189.702C613.258 196.986 611.403 202.325 608.125 205.722C604.91 209.122 600.268 210.642 594.199 210.283ZM621.849 211.342C621.21 211.305 620.912 210.934 620.953 210.232L625.306 149.711C625.351 148.944 625.725 148.582 626.428 148.623L638.407 149.333C639.046 149.37 639.412 149.681 639.506 150.263L646.157 182.489L656.564 151.273C656.726 150.706 657.126 150.441 657.765 150.479L669.744 151.188C670.319 151.222 670.584 151.622 670.538 152.389L667.815 213.006C667.774 213.709 667.433 214.041 666.795 214.003L657.02 213.425C656.381 213.387 656.084 212.984 656.129 212.218L657.509 185.661C657.638 182.399 657.844 179.462 658.127 176.85C658.414 174.174 658.719 171.724 659.043 169.499L658.947 169.494C658.319 171.444 657.623 173.454 656.859 175.525C656.163 177.535 655.437 179.512 654.681 181.454L645.923 204.305C645.765 204.808 645.463 205.047 645.015 205.02L644.536 204.992C644.153 204.969 643.881 204.697 643.719 204.174L637.719 180.45C637.201 178.368 636.715 176.288 636.261 174.209C635.807 172.131 635.383 170.086 634.989 168.075L634.797 168.064C634.857 170.311 634.871 172.781 634.84 175.471C634.813 178.098 634.67 181.039 634.414 184.294L632.651 210.828C632.605 211.595 632.263 211.959 631.624 211.921L621.849 211.342ZM676.736 214.592C676.097 214.554 675.798 214.184 675.84 213.481L680.192 152.96C680.237 152.194 680.611 151.831 681.314 151.873L693.293 152.582C693.932 152.62 694.298 152.93 694.392 153.512L701.043 185.738L711.45 154.522C711.612 153.955 712.012 153.69 712.651 153.728L724.63 154.437C725.205 154.471 725.47 154.871 725.425 155.638L722.702 216.255C722.66 216.958 722.32 217.29 721.681 217.252L711.906 216.674C711.267 216.636 710.97 216.234 711.016 215.467L712.396 188.91C712.525 185.648 712.731 182.711 713.013 180.099C713.3 177.424 713.605 174.973 713.929 172.749L713.834 172.743C713.205 174.693 712.509 176.704 711.746 178.774C711.05 180.784 710.323 182.761 709.567 184.704L700.81 207.554C700.652 208.058 700.349 208.296 699.902 208.27L699.423 208.241C699.039 208.219 698.767 207.946 698.605 207.424L692.605 183.7C692.087 181.617 691.601 179.537 691.147 177.458C690.693 175.38 690.269 173.335 689.876 171.325L689.684 171.313C689.743 173.561 689.757 176.03 689.726 178.721C689.699 181.348 689.557 184.288 689.3 187.543L687.537 214.077C687.492 214.844 687.149 215.208 686.511 215.17L676.736 214.592ZM732.293 217.881C731.654 217.843 731.357 217.441 731.403 216.674L734.982 156.204C735.028 155.437 735.37 155.073 736.009 155.111L745.975 155.701C746.614 155.738 746.911 156.141 746.866 156.907L743.286 217.377C743.24 218.144 742.898 218.509 742.259 218.471L732.293 217.881ZM762.207 219.652C761.568 219.614 761.271 219.212 761.317 218.445L764.335 167.462L754.272 166.866C753.633 166.829 753.337 166.426 753.382 165.66L753.876 157.322C753.921 156.556 754.263 156.191 754.902 156.229L786.718 158.113C787.357 158.15 787.654 158.553 787.609 159.319L787.115 167.657C787.07 168.423 786.728 168.788 786.089 168.75L776.122 168.16L773.104 219.143C773.059 219.909 772.716 220.274 772.078 220.236L762.207 219.652ZM804.551 222.158C803.721 222.109 803.328 221.701 803.373 220.935L803.816 213.46C804.028 209.882 804.69 206.812 805.804 204.249C806.921 201.623 808.305 199.364 809.955 197.475C811.61 195.521 813.347 193.797 815.166 192.301C816.989 190.743 818.683 189.208 820.247 187.698C821.875 186.191 823.221 184.572 824.285 182.84C825.417 181.048 826.053 178.97 826.193 176.606L826.261 175.456C826.374 173.539 826.104 172.145 825.451 171.273C824.865 170.34 823.869 169.833 822.464 169.749C820.866 169.655 819.711 170.227 818.996 171.467C818.285 172.643 817.92 174.481 817.9 176.98C817.915 177.815 817.507 178.207 816.677 178.158L808.243 177.659C807.541 177.617 807.15 177.177 807.071 176.339C807.141 170.83 808.544 166.617 811.281 163.702C814.086 160.726 818.108 159.394 823.347 159.704C828.394 160.003 832.15 161.539 834.614 164.314C837.078 167.088 838.157 171.063 837.851 176.238C837.643 179.752 836.984 182.758 835.875 185.257C834.833 187.696 833.52 189.83 831.937 191.659C830.422 193.429 828.787 195.063 827.031 196.562C825.343 198.001 823.717 199.475 822.153 200.986C820.593 202.432 819.277 204.085 818.205 205.945C817.197 207.809 816.616 210.05 816.461 212.67L834.285 213.725C835.052 213.77 835.413 214.176 835.367 214.943L834.902 222.801C834.857 223.568 834.451 223.928 833.684 223.883L804.551 222.158ZM859.231 225.972C853.608 225.64 849.424 223.757 846.678 220.325C843.996 216.896 842.841 212.051 843.211 205.79L844.726 180.203C845.1 173.878 846.82 169.204 849.884 166.18C853.015 163.095 857.392 161.719 863.015 162.052C868.637 162.385 872.789 164.266 875.471 167.694C878.221 171.063 879.408 175.909 879.034 182.234L877.519 207.821C877.148 214.082 875.397 218.755 872.266 221.839C869.198 224.928 864.853 226.305 859.231 225.972ZM859.838 215.718C861.754 215.832 863.171 215.178 864.089 213.758C865.07 212.342 865.656 210.036 865.845 206.842L867.325 181.83C867.514 178.635 867.205 176.277 866.398 174.754C865.654 173.236 864.324 172.42 862.408 172.306C860.491 172.193 859.042 172.844 858.06 174.261C857.143 175.681 856.59 177.988 856.4 181.183L854.92 206.195C854.731 209.389 855.008 211.746 855.751 213.265C856.559 214.787 857.921 215.605 859.838 215.718ZM884.47 226.89C883.639 226.84 883.247 226.432 883.292 225.666L883.735 218.191C883.947 214.613 884.609 211.543 885.723 208.98C886.84 206.354 888.224 204.096 889.874 202.206C891.528 200.252 893.265 198.528 895.085 197.033C896.908 195.474 898.602 193.939 900.166 192.429C901.794 190.922 903.14 189.303 904.204 187.571C905.336 185.779 905.972 183.701 906.112 181.337L906.18 180.187C906.293 178.27 906.023 176.876 905.37 176.004C904.784 175.071 903.788 174.564 902.382 174.48C900.785 174.386 899.629 174.959 898.915 176.199C898.204 177.375 897.839 179.212 897.819 181.711C897.834 182.546 897.426 182.938 896.595 182.889L888.162 182.39C887.459 182.348 887.069 181.908 886.99 181.07C887.06 175.561 888.463 171.348 891.2 168.433C894.005 165.458 898.027 164.125 903.266 164.435C908.313 164.734 912.069 166.271 914.533 169.045C916.997 171.82 918.076 175.794 917.77 180.969C917.562 184.483 916.903 187.489 915.793 189.988C914.752 192.427 913.439 194.561 911.856 196.391C910.341 198.16 908.706 199.794 906.95 201.293C905.262 202.732 903.636 204.207 902.072 205.717C900.512 207.163 899.196 208.816 898.124 210.676C897.116 212.54 896.535 214.781 896.38 217.401L914.204 218.456C914.971 218.501 915.332 218.907 915.286 219.674L914.821 227.532C914.776 228.299 914.37 228.66 913.603 228.614L884.47 226.89ZM936.754 230.562C932.856 230.331 929.737 229.409 927.397 227.796C925.12 226.187 923.548 224.042 922.681 221.362C921.881 218.622 921.745 215.504 922.273 212.01C922.431 211.506 922.577 211.194 922.713 211.074C922.916 210.894 923.209 210.815 923.592 210.837L932.025 211.337C932.792 211.382 933.151 211.82 933.102 212.651C932.905 214.883 933.085 216.721 933.641 218.164C934.26 219.611 935.56 220.393 937.541 220.511C939.458 220.624 940.875 219.971 941.792 218.55C942.777 217.07 943.366 214.701 943.559 211.443L943.735 208.472C943.856 206.427 943.731 204.753 943.359 203.449C943.055 202.084 942.443 201.054 941.523 200.359C940.602 199.663 939.375 199.27 937.842 199.179C935.989 199.07 933.99 199.272 931.844 199.786C929.701 200.236 927.679 200.821 925.777 201.542C925.123 201.76 924.642 201.764 924.334 201.553C924.09 201.346 923.983 200.987 924.013 200.476L928.073 167.635C928.246 166.876 928.684 166.517 929.387 166.559L953.537 167.988C954.303 168.034 954.664 168.44 954.619 169.206L954.153 177.064C954.108 177.831 953.702 178.192 952.935 178.146L937.219 177.216L935.534 191.061C936.97 190.633 938.334 190.329 939.627 190.149C940.92 189.969 942.365 189.926 943.962 190.021C948.306 190.278 951.374 192.062 953.166 195.374C955.021 198.69 955.743 203.829 955.33 210.793C954.926 217.629 953.246 222.723 950.29 226.074C947.335 229.425 942.823 230.921 936.754 230.562Z" fill="#4C5259"/>
<path d="M1106.27 234.896C1100.21 234.537 1095.68 232.537 1092.69 228.898C1089.76 225.199 1088.52 219.644 1088.96 212.233L1090.19 191.438C1090.61 184.282 1092.5 179.008 1095.84 175.616C1099.25 172.163 1103.99 170.617 1110.06 170.976C1114.34 171.229 1117.83 172.366 1120.53 174.385C1123.23 176.404 1125.12 179.112 1126.21 182.51C1127.35 185.912 1127.53 189.834 1126.76 194.276C1126.59 195.035 1126.28 195.401 1125.83 195.374L1115.77 194.779C1115.06 194.737 1114.8 194.305 1114.98 193.482C1115.45 189.791 1115.27 186.96 1114.42 184.986C1113.58 182.949 1111.88 181.855 1109.33 181.703C1106.96 181.563 1105.19 182.324 1104 183.985C1102.88 185.585 1102.2 188.43 1101.96 192.519L1100.79 212.26C1100.54 216.477 1100.9 219.48 1101.89 221.269C1102.94 223.062 1104.61 224.027 1106.91 224.163C1109.59 224.322 1111.41 223.403 1112.36 221.408C1113.32 219.349 1113.83 216.591 1113.91 213.133C1113.9 212.299 1114.21 211.901 1114.85 211.938L1124.72 212.523C1125.29 212.557 1125.62 212.961 1125.7 213.735C1125.87 220.605 1124.31 225.962 1121 229.805C1117.76 233.589 1112.85 235.286 1106.27 234.896ZM1129.64 235.702C1129 235.664 1128.77 235.234 1128.95 234.411L1145.47 174.515C1145.64 173.948 1146 173.681 1146.58 173.715L1159.42 174.475C1160.06 174.513 1160.43 174.823 1160.52 175.406L1169.77 236.828C1169.91 237.67 1169.67 238.072 1169.03 238.034L1158.01 237.381C1157.43 237.347 1157.1 237.039 1157 236.457L1153.46 198.837C1153.27 196.646 1153.08 194.455 1152.89 192.264C1152.7 190.009 1152.54 187.788 1152.42 185.601L1152.22 185.589C1151.78 187.743 1151.36 189.93 1150.97 192.151C1150.59 194.308 1150.14 196.493 1149.62 198.706L1141.48 235.537C1141.38 236.109 1141.01 236.375 1140.37 236.338L1129.64 235.702ZM1142.39 223.378L1144.59 213.796L1156.38 214.493L1157.63 224.28L1142.39 223.378ZM1176.38 238.469C1175.74 238.431 1175.44 238.029 1175.49 237.262L1179.07 176.792C1179.11 176.026 1179.46 175.661 1180.1 175.699L1192.65 176.442C1193.22 176.476 1193.56 176.753 1193.66 177.271L1199.79 206.87C1200.14 208.493 1200.49 210.309 1200.82 212.316C1201.21 214.262 1201.58 216.239 1201.91 218.246C1202.24 220.253 1202.49 221.999 1202.66 223.484L1202.85 223.495C1202.86 222.214 1202.85 220.675 1202.83 218.878C1202.81 217.082 1202.79 215.221 1202.78 213.297C1202.83 211.377 1202.87 209.52 1202.91 207.728C1203.02 205.939 1203.11 204.405 1203.19 203.128L1204.66 178.211C1204.7 177.508 1205.04 177.176 1205.68 177.214L1214.79 177.753C1215.49 177.794 1215.82 178.167 1215.78 178.869L1212.19 239.435C1212.15 240.202 1211.81 240.566 1211.17 240.529L1198.71 239.791C1198.2 239.761 1197.86 239.484 1197.7 238.962L1191.35 209.832C1190.75 206.975 1190.21 204.091 1189.74 201.178C1189.34 198.205 1188.99 195.523 1188.68 193.133L1188.49 193.122C1188.51 194.982 1188.5 197.194 1188.48 199.757C1188.46 202.32 1188.4 204.913 1188.31 207.536C1188.29 210.099 1188.22 212.307 1188.11 214.16L1186.7 237.926C1186.66 238.693 1186.28 239.055 1185.58 239.014L1176.38 238.469ZM1218.64 240.971C1218 240.933 1217.77 240.503 1217.94 239.68L1234.47 179.784C1234.63 179.216 1235 178.949 1235.58 178.984L1248.42 179.744C1249.06 179.782 1249.42 180.092 1249.52 180.674L1258.77 242.096C1258.91 242.938 1258.66 243.34 1258.02 243.302L1247 242.65C1246.43 242.616 1246.09 242.308 1246 241.725L1242.46 204.106C1242.27 201.915 1242.07 199.724 1241.88 197.533C1241.7 195.278 1241.54 193.056 1241.41 190.869L1241.22 190.858C1240.77 193.011 1240.35 195.198 1239.97 197.419C1239.58 199.576 1239.13 201.761 1238.62 203.975L1230.47 240.806C1230.38 241.377 1230.01 241.644 1229.37 241.606L1218.64 240.971ZM1231.39 228.647L1233.59 219.064L1245.38 219.762L1246.62 229.549L1231.39 228.647ZM1265.57 243.749C1264.8 243.704 1264.44 243.298 1264.49 242.531L1268.07 182.061C1268.11 181.294 1268.52 180.934 1269.28 180.979L1282.99 181.79C1290.21 182.218 1295.51 184.743 1298.89 189.367C1302.27 193.927 1303.7 200.679 1303.17 209.624L1302.69 217.674C1302.13 227.129 1299.93 234.083 1296.07 238.535C1292.22 242.987 1286.78 245.005 1279.75 244.589L1265.57 243.749ZM1276.93 233.747L1280.09 233.934C1283.48 234.135 1286.02 232.875 1287.72 230.155C1289.43 227.37 1290.45 223.007 1290.81 217.066L1291.29 208.92C1291.61 203.554 1291.04 199.513 1289.6 196.799C1288.22 194.089 1285.74 192.628 1282.17 192.416L1279.39 192.252L1276.93 233.747ZM1305.11 246.09C1304.47 246.052 1304.24 245.621 1304.41 244.799L1320.94 184.903C1321.1 184.335 1321.47 184.068 1322.05 184.103L1334.89 184.863C1335.53 184.901 1335.89 185.211 1335.99 185.793L1345.24 247.215C1345.38 248.057 1345.13 248.459 1344.49 248.421L1333.47 247.769C1332.9 247.735 1332.56 247.427 1332.47 246.844L1328.93 209.225C1328.74 207.034 1328.54 204.843 1328.35 202.652C1328.17 200.397 1328.01 198.175 1327.88 195.988L1327.69 195.977C1327.24 198.13 1326.82 200.317 1326.44 202.538C1326.05 204.695 1325.6 206.88 1325.09 209.094L1316.94 245.925C1316.85 246.496 1316.48 246.763 1315.84 246.725L1305.11 246.09ZM1317.86 233.766L1320.06 224.183L1331.85 224.881L1333.09 234.668L1317.86 233.766ZM1349.1 213.593C1348.4 213.551 1348.13 213.119 1348.31 212.296L1354.23 187.066C1354.4 186.37 1354.8 186.042 1355.44 186.079L1366.84 186.755C1367.29 186.781 1367.57 186.926 1367.68 187.189C1367.86 187.392 1367.91 187.683 1367.82 188.063L1358.74 213.202C1358.57 213.833 1358.17 214.13 1357.53 214.092L1349.1 213.593ZM1385.58 251.431C1381.5 251.189 1378.25 250.259 1375.84 248.643C1373.51 246.966 1371.91 244.691 1371.05 241.82C1370.27 238.888 1370.15 235.515 1370.69 231.7C1370.81 230.874 1371.15 230.477 1371.72 230.511L1381.5 231.09C1382.07 231.124 1382.31 231.523 1382.2 232.285C1381.78 234.954 1381.91 237.077 1382.59 238.656C1383.33 240.174 1384.6 240.987 1386.39 241.093C1388.05 241.191 1389.29 240.784 1390.12 239.871C1390.94 238.958 1391.41 237.415 1391.54 235.243C1391.65 233.39 1391.43 231.774 1390.87 230.395C1390.38 228.955 1389.46 227.682 1388.11 226.577L1380.34 219.77C1377.48 217.292 1375.39 214.7 1374.07 211.994C1372.76 209.287 1372.25 205.987 1372.54 202.094C1372.9 197.115 1374.47 193.361 1377.25 190.832C1380.03 188.304 1384 187.193 1389.18 187.5C1394.99 187.844 1399.18 189.694 1401.73 193.051C1404.3 196.345 1405.15 200.883 1404.29 206.667C1404.18 207.557 1403.8 207.984 1403.16 207.946L1393.29 207.361C1392.65 207.324 1392.39 206.859 1392.51 205.969C1392.89 203.748 1392.78 201.882 1392.17 200.371C1391.62 198.8 1390.54 197.967 1388.95 197.872C1387.61 197.793 1386.52 198.178 1385.71 199.027C1384.95 199.816 1384.49 201.135 1384.32 202.983C1384.21 204.836 1384.5 206.424 1385.19 207.747C1385.88 209.007 1386.84 210.185 1388.06 211.283L1395.74 217.893C1397.82 219.619 1399.45 221.35 1400.63 223.087C1401.81 224.759 1402.6 226.633 1402.99 228.708C1403.45 230.722 1403.59 233.135 1403.43 235.946C1403.05 241.245 1401.43 245.253 1398.58 247.969C1395.73 250.621 1391.4 251.775 1385.58 251.431Z" fill="#4C5259"/>
<path d="M1445.66 182.079L-2.34375 267.873V385.079L1445.66 295.878V182.079Z" fill="#5CB3FF"/>
<path d="M1088.72 246.692L1086.81 255.826L1094.82 251.379C1096.43 250.483 1098.46 251.242 1099.1 252.975L1102.19 261.47C1102.9 263.427 1101.45 265.497 1099.37 265.497H1089.47L1096.16 271.818C1097.53 273.104 1097.39 275.309 1095.88 276.417L1089.53 281.085C1088.08 282.147 1086.03 281.712 1085.14 280.153L1081.05 272.969L1076.98 280.099C1076.08 281.677 1074 282.1 1072.56 280.999L1066.43 276.324C1065.01 275.239 1064.84 273.156 1066.08 271.863L1072.18 265.497L1064.26 264.892C1062.39 264.75 1061.1 262.941 1061.59 261.127L1063.7 253.215C1064.19 251.384 1066.23 250.459 1067.93 251.301L1077.06 255.826L1074.01 247.064C1073.33 245.115 1074.78 243.079 1076.84 243.079H1085.78C1087.68 243.079 1089.11 244.829 1088.72 246.692Z" fill="white"/>
<path d="M62.9542 358.158C56.885 358.521 52.1502 357.073 48.7496 353.814C45.409 350.487 43.5172 345.119 43.074 337.708L41.8304 316.913C41.4025 309.758 42.6468 304.298 45.5632 300.533C48.5398 296.701 53.0626 294.603 59.1318 294.24C63.4121 293.984 67.0132 294.698 69.935 296.383C72.8567 298.067 75.0558 300.533 76.5322 303.778C78.0725 307.02 78.7208 310.892 78.4771 315.395C78.3952 316.169 78.1306 316.57 77.6834 316.596L67.6214 317.198C66.9187 317.24 66.6063 316.842 66.6845 316.004C66.7184 312.283 66.1989 309.493 65.126 307.634C64.0493 305.711 62.2332 304.826 59.6778 304.979C57.314 305.12 55.6407 306.085 54.6578 307.875C53.7349 309.598 53.3958 312.503 53.6403 316.592L54.8208 336.332C55.073 340.549 55.7937 343.487 56.9829 345.147C58.236 346.803 60.0125 347.562 62.3124 347.425C64.9956 347.264 66.6913 346.137 67.3996 344.043C68.104 341.885 68.2892 339.085 67.9551 335.643C67.8415 334.816 68.1042 334.384 68.7431 334.346L78.6134 333.755C79.1884 333.721 79.5627 334.083 79.7363 334.842C80.7201 341.644 79.799 347.149 76.9732 351.357C74.2075 355.497 69.5344 357.764 62.9542 358.158ZM86.2496 356.188C85.6108 356.226 85.3304 355.826 85.4085 354.988L94.7178 293.554C94.8112 292.972 95.1454 292.663 95.7203 292.629L108.561 291.861C109.2 291.823 109.601 292.087 109.763 292.655L126.232 352.546C126.473 353.365 126.274 353.794 125.635 353.832L114.615 354.491C114.04 354.526 113.671 354.259 113.509 353.692L105.53 316.758C105.081 314.605 104.632 312.452 104.182 310.299C103.729 308.082 103.31 305.896 102.924 303.739L102.733 303.75C102.543 305.941 102.388 308.163 102.266 310.414C102.14 312.601 101.952 314.824 101.703 317.083L97.985 354.62C97.9555 355.199 97.6213 355.508 96.9825 355.546L86.2496 356.188ZM97.4489 342.439L98.4991 332.662L110.286 331.958L112.686 341.527L97.4489 342.439ZM132.989 353.393C132.35 353.431 132.007 353.067 131.962 352.3L128.345 291.832C128.3 291.065 128.596 290.663 129.235 290.625L141.789 289.874C142.364 289.84 142.73 290.074 142.889 290.578L152.489 319.24C153.031 320.81 153.586 322.572 154.151 324.526C154.777 326.412 155.373 328.332 155.938 330.285C156.504 332.239 156.958 333.943 157.302 335.397L157.493 335.386C157.353 334.112 157.166 332.584 156.931 330.803C156.696 329.022 156.458 327.177 156.215 325.268C156.037 323.355 155.862 321.506 155.691 319.721C155.584 317.932 155.492 316.399 155.416 315.121L153.926 290.206C153.884 289.503 154.182 289.133 154.821 289.095L163.925 288.55C164.628 288.508 165 288.838 165.042 289.541L168.664 350.105C168.71 350.872 168.413 351.274 167.774 351.312L155.317 352.057C154.806 352.088 154.439 351.853 154.217 351.354L144.454 323.182C143.519 320.417 142.646 317.616 141.835 314.78C141.085 311.875 140.415 309.254 139.826 306.917L139.635 306.929C139.873 308.774 140.133 310.97 140.414 313.518C140.694 316.066 140.945 318.648 141.165 321.263C141.446 323.811 141.642 326.011 141.752 327.864L143.174 351.629C143.219 352.396 142.891 352.8 142.188 352.842L132.989 353.393ZM175.243 350.866C174.604 350.904 174.324 350.504 174.402 349.666L183.711 288.232C183.805 287.65 184.139 287.341 184.714 287.307L197.555 286.539C198.194 286.501 198.594 286.765 198.756 287.333L215.225 347.224C215.466 348.043 215.268 348.472 214.629 348.51L203.608 349.169C203.033 349.204 202.665 348.937 202.503 348.37L194.524 311.436C194.074 309.283 193.625 307.13 193.176 304.977C192.723 302.76 192.303 300.573 191.918 298.417L191.726 298.428C191.537 300.619 191.381 302.841 191.259 305.092C191.134 307.279 190.946 309.502 190.696 311.761L186.979 349.298C186.949 349.877 186.615 350.186 185.976 350.224L175.243 350.866ZM186.442 337.117L187.493 327.34L199.28 326.636L201.679 336.205L186.442 337.117ZM222.174 348.059C221.407 348.105 221.001 347.744 220.955 346.978L217.339 286.51C217.293 285.743 217.653 285.337 218.42 285.291L232.124 284.472C239.343 284.04 244.905 285.919 248.81 290.11C252.711 294.236 254.929 300.771 255.464 309.715L255.946 317.765C256.511 327.22 255.144 334.386 251.846 339.264C248.547 344.142 243.384 346.791 236.356 347.211L222.174 348.059ZM232.271 336.78L235.433 336.591C238.819 336.389 241.194 334.836 242.56 331.933C243.921 328.967 244.424 324.513 244.069 318.571L243.581 310.426C243.261 305.06 242.223 301.114 240.469 298.591C238.779 296.063 236.146 294.906 232.568 295.12L229.789 295.286L232.271 336.78ZM261.71 345.695C261.071 345.733 260.791 345.333 260.869 344.495L270.178 283.061C270.271 282.479 270.606 282.17 271.181 282.136L284.022 281.368C284.661 281.33 285.061 281.594 285.223 282.162L301.692 342.053C301.933 342.873 301.734 343.301 301.096 343.339L290.075 343.998C289.5 344.033 289.132 343.766 288.97 343.199L280.991 306.265C280.541 304.112 280.092 301.959 279.643 299.806C279.189 297.589 278.77 295.403 278.385 293.246L278.193 293.257C278.003 295.448 277.848 297.67 277.726 299.921C277.6 302.108 277.413 304.332 277.163 306.59L273.445 344.127C273.416 344.706 273.082 345.015 272.443 345.053L261.71 345.695ZM272.909 331.946L273.959 322.169L285.746 321.465L288.146 331.034L272.909 331.946ZM301.54 308.21C300.837 308.252 300.524 307.854 300.603 307.016L303.486 281.262C303.572 280.552 303.934 280.177 304.573 280.139L315.977 279.457C316.424 279.43 316.719 279.541 316.862 279.789C317.065 279.969 317.146 280.253 317.105 280.64L311.065 306.679C310.976 307.325 310.611 307.668 309.972 307.706L301.54 308.21ZM342.254 341.455C338.165 341.7 334.831 341.162 332.252 339.841C329.732 338.453 327.878 336.384 326.687 333.634C325.557 330.817 325.037 327.482 325.127 323.63C325.142 322.795 325.436 322.361 326.011 322.327L335.786 321.742C336.361 321.708 336.639 322.076 336.621 322.846C336.526 325.545 336.908 327.638 337.766 329.125C338.684 330.545 340.038 331.201 341.827 331.094C343.488 330.995 344.673 330.443 345.382 329.439C346.092 328.435 346.381 326.847 346.251 324.674C346.141 322.822 345.726 321.244 345.007 319.94C344.348 318.569 343.285 317.415 341.818 316.476L333.294 310.639C330.154 308.519 327.771 306.193 326.145 303.661C324.519 301.13 323.622 297.914 323.452 294.013C323.218 289.026 324.331 285.112 326.789 282.273C329.248 279.433 333.065 277.858 338.24 277.549C344.053 277.201 348.429 278.542 351.367 281.572C354.302 284.538 355.687 288.943 355.524 294.788C355.513 295.686 355.189 296.154 354.55 296.192L344.68 296.783C344.041 296.821 343.726 296.391 343.737 295.493C343.859 293.241 343.524 291.402 342.734 289.975C342.003 288.479 340.839 287.78 339.242 287.875C337.901 287.955 336.873 288.466 336.16 289.406C335.507 290.278 335.204 291.643 335.251 293.5C335.362 295.352 335.838 296.895 336.682 298.126C337.521 299.294 338.61 300.351 339.949 301.297L348.365 306.949C350.633 308.416 352.455 309.942 353.832 311.526C355.205 313.047 356.209 314.814 356.842 316.828C357.535 318.774 357.966 321.153 358.134 323.964C358.387 329.27 357.258 333.441 354.747 336.476C352.232 339.448 348.068 341.107 342.254 341.455ZM398.666 338.081C392.597 338.444 387.862 336.996 384.461 333.738C381.121 330.411 379.229 325.042 378.785 317.632L377.542 296.837C377.114 289.682 378.358 284.222 381.275 280.457C384.251 276.624 388.774 274.527 394.843 274.164C399.124 273.908 402.725 274.622 405.646 276.307C408.568 277.991 410.767 280.456 412.244 283.702C413.784 286.944 414.432 290.816 414.189 295.319C414.107 296.093 413.842 296.493 413.395 296.52L403.333 297.122C402.63 297.164 402.318 296.766 402.396 295.928C402.43 292.207 401.91 289.417 400.838 287.558C399.761 285.635 397.945 284.749 395.389 284.902C393.025 285.044 391.352 286.009 390.369 287.799C389.446 289.521 389.107 292.427 389.352 296.515L390.532 316.256C390.784 320.473 391.505 323.411 392.694 325.071C393.947 326.727 395.724 327.486 398.024 327.349C400.707 327.188 402.403 326.061 403.111 323.967C403.815 321.809 404.001 319.009 403.667 315.567C403.553 314.74 403.816 314.308 404.455 314.269L414.325 313.679C414.9 313.645 415.274 314.007 415.448 314.766C416.432 321.567 415.511 327.072 412.685 331.28C409.919 335.421 405.246 337.688 398.666 338.081ZM426.545 335.837C425.842 335.879 425.468 335.517 425.422 334.75L421.806 274.282C421.76 273.516 422.089 273.111 422.792 273.069L432.566 272.485C433.269 272.443 433.643 272.805 433.689 273.572L436.738 324.553L451.879 323.647C452.581 323.605 452.956 323.967 453.002 324.734L453.5 333.071C453.546 333.838 453.218 334.242 452.515 334.284L426.545 335.837ZM477.365 333.375C471.296 333.738 466.559 332.258 463.155 328.935C459.814 325.609 457.94 320.528 457.531 313.692L456.207 291.556C455.79 284.592 457.042 279.26 459.963 275.559C462.947 271.854 467.473 269.82 473.543 269.457C479.612 269.094 484.349 270.574 487.753 273.897C491.157 277.22 493.068 282.363 493.484 289.326L494.808 311.463C495.217 318.298 493.929 323.569 490.945 327.273C487.961 330.978 483.434 333.012 477.365 333.375ZM476.723 322.642C479.087 322.501 480.764 321.599 481.755 319.937C482.741 318.211 483.122 315.463 482.897 311.694L481.624 290.42C481.395 286.587 480.69 283.904 479.508 282.372C478.323 280.776 476.548 280.049 474.184 280.19C471.885 280.328 470.209 281.261 469.159 282.991C468.168 284.653 467.788 287.401 468.017 291.234L469.289 312.508C469.514 316.277 470.22 318.96 471.405 320.556C472.651 322.084 474.423 322.78 476.723 322.642ZM522.517 330.675C516.448 331.038 511.805 329.52 508.588 326.122C505.372 322.724 503.546 317.384 503.11 310.101L500.68 269.469C500.638 268.767 500.937 268.396 501.576 268.358L511.638 267.756C512.213 267.722 512.521 268.056 512.563 268.759L514.976 309.103C515.224 313.255 515.877 316.133 516.935 317.737C518.056 319.337 519.703 320.072 521.875 319.942C524.111 319.808 525.659 318.882 526.518 317.164C527.44 315.442 527.778 312.504 527.529 308.352L525.117 268.008C525.075 267.305 525.373 266.935 526.012 266.896L535.978 266.3C536.617 266.262 536.957 266.595 536.999 267.297L539.429 307.929C539.865 315.212 538.656 320.734 535.804 324.495C533.015 328.252 528.586 330.312 522.517 330.675ZM550.96 328.397C550.194 328.443 549.787 328.082 549.741 327.316L546.125 266.848C546.079 266.081 546.44 265.675 547.206 265.629L560.91 264.809C568.129 264.378 573.691 266.257 577.596 270.447C581.498 274.574 583.716 281.109 584.251 290.053L584.732 298.103C585.297 307.558 583.931 314.724 580.632 319.602C577.333 324.479 572.17 327.128 565.143 327.549L550.96 328.397ZM561.057 317.118L564.219 316.929C567.605 316.726 569.981 315.174 571.346 312.271C572.707 309.305 573.21 304.851 572.855 298.909L572.368 290.764C572.047 285.397 571.01 281.452 569.256 278.928C567.566 276.401 564.932 275.244 561.354 275.458L558.575 275.624L561.057 317.118ZM623.175 324.655C619.086 324.9 615.752 324.362 613.172 323.041C610.653 321.653 608.798 319.584 607.608 316.835C606.478 314.017 605.958 310.682 606.048 306.83C606.062 305.996 606.357 305.561 606.932 305.527L616.706 304.942C617.281 304.908 617.56 305.276 617.542 306.046C617.447 308.745 617.828 310.838 618.687 312.325C619.605 313.745 620.959 314.401 622.747 314.294C624.408 314.195 625.594 313.643 626.303 312.639C627.012 311.635 627.302 310.047 627.172 307.875C627.061 306.022 626.646 304.444 625.927 303.141C625.268 301.769 624.205 300.615 622.739 299.677L614.215 293.839C611.075 291.719 608.692 289.393 607.066 286.862C605.44 284.33 604.542 281.114 604.373 277.213C604.139 272.226 605.251 268.313 607.71 265.473C610.169 262.633 613.986 261.058 619.16 260.749C624.974 260.401 629.35 261.742 632.288 264.772C635.222 267.739 636.608 272.144 636.444 277.988C636.434 278.886 636.109 279.354 635.471 279.393L625.6 279.983C624.961 280.021 624.647 279.591 624.657 278.693C624.779 276.442 624.445 274.602 623.654 273.175C622.924 271.68 621.76 270.98 620.163 271.076C618.821 271.156 617.794 271.666 617.081 272.606C616.428 273.479 616.124 274.843 616.171 276.7C616.282 278.553 616.759 280.095 617.602 281.327C618.441 282.495 619.53 283.552 620.869 284.497L629.286 290.149C631.553 291.616 633.376 293.142 634.753 294.727C636.126 296.247 637.129 298.015 637.762 300.029C638.456 301.975 638.887 304.353 639.055 307.164C639.308 312.47 638.179 316.641 635.668 319.677C633.153 322.648 628.988 324.308 623.175 324.655ZM665.598 322.118C659.528 322.481 654.885 320.964 651.669 317.566C648.452 314.168 646.626 308.827 646.191 301.544L643.761 260.913C643.719 260.21 644.017 259.839 644.656 259.801L654.718 259.2C655.293 259.165 655.602 259.499 655.644 260.202L658.056 300.546C658.305 304.699 658.958 307.577 660.015 309.18C661.137 310.78 662.784 311.515 664.956 311.385C667.192 311.252 668.739 310.326 669.598 308.607C670.521 306.885 670.858 303.948 670.61 299.795L668.197 259.451C668.155 258.749 668.454 258.378 669.092 258.34L679.059 257.744C679.698 257.706 680.038 258.038 680.08 258.741L682.51 299.372C682.945 306.655 681.737 312.177 678.884 315.938C676.096 319.695 671.667 321.755 665.598 322.118ZM693.178 319.892C692.539 319.93 692.199 319.598 692.157 318.895L689.302 258.285C689.256 257.519 689.584 257.114 690.287 257.072L702.266 256.356C702.905 256.318 703.305 256.582 703.467 257.15L713.893 288.359L720.525 256.13C720.618 255.547 720.984 255.237 721.623 255.198L733.602 254.482C734.177 254.448 734.487 254.814 734.533 255.58L739.017 316.093C739.059 316.795 738.761 317.166 738.122 317.204L728.348 317.789C727.709 317.827 727.366 317.463 727.32 316.696L725.541 290.163C725.283 286.909 725.139 283.968 725.11 281.341C725.077 278.65 725.09 276.181 725.148 273.933L725.052 273.939C724.659 275.95 724.207 278.029 723.694 280.175C723.241 282.254 722.755 284.303 722.234 286.321L716.248 310.049C716.151 310.568 715.879 310.841 715.431 310.867L714.952 310.896C714.569 310.919 714.266 310.681 714.044 310.181L705.272 287.336C704.511 285.33 703.782 283.322 703.085 281.312C702.388 279.302 701.724 277.322 701.095 275.372L700.903 275.383C701.229 277.608 701.535 280.058 701.824 282.734C702.108 285.345 702.316 288.282 702.447 291.544L703.842 318.1C703.888 318.867 703.592 319.269 702.953 319.307L693.178 319.892ZM748.063 316.61C747.424 316.648 747.083 316.316 747.041 315.613L744.186 255.003C744.14 254.237 744.469 253.832 745.172 253.79L757.15 253.074C757.789 253.036 758.19 253.3 758.352 253.868L768.777 285.077L775.409 252.847C775.503 252.265 775.869 251.954 776.508 251.916L788.486 251.2C789.061 251.166 789.372 251.532 789.417 252.298L793.902 312.81C793.944 313.513 793.645 313.884 793.006 313.922L783.232 314.506C782.593 314.545 782.251 314.18 782.205 313.414L780.426 286.881C780.167 283.626 780.023 280.686 779.994 278.059C779.962 275.368 779.974 272.899 780.032 270.651L779.936 270.657C779.544 272.668 779.091 274.747 778.578 276.893C778.126 278.972 777.639 281.021 777.119 283.039L771.132 306.767C771.035 307.286 770.763 307.558 770.316 307.585L769.837 307.614C769.453 307.637 769.151 307.398 768.928 306.899L760.157 284.054C759.396 282.047 758.667 280.039 757.969 278.029C757.272 276.02 756.609 274.04 755.979 272.09L755.788 272.101C756.113 274.326 756.42 276.776 756.708 279.451C756.992 282.063 757.2 285 757.331 288.262L758.727 314.818C758.773 315.584 758.476 315.987 757.837 316.025L748.063 316.61ZM803.618 313.287C802.979 313.326 802.637 312.961 802.591 312.195L798.975 251.727C798.929 250.96 799.225 250.558 799.864 250.519L809.831 249.923C810.469 249.885 810.812 250.249 810.858 251.016L814.474 311.484C814.52 312.251 814.223 312.653 813.584 312.691L803.618 313.287ZM833.531 311.498C832.892 311.537 832.55 311.172 832.504 310.406L829.455 259.425L819.393 260.027C818.754 260.065 818.412 259.701 818.366 258.934L817.867 250.597C817.822 249.83 818.118 249.428 818.757 249.39L850.572 247.487C851.211 247.449 851.553 247.813 851.599 248.58L852.098 256.917C852.144 257.683 851.847 258.086 851.208 258.124L841.242 258.72L844.291 309.701C844.337 310.468 844.04 310.87 843.401 310.908L833.531 311.498ZM875.874 308.966C875.043 309.016 874.605 308.657 874.559 307.891L874.112 300.416C873.898 296.839 874.192 293.711 874.994 291.035C875.791 288.294 876.898 285.888 878.313 283.816C879.724 281.68 881.244 279.762 882.873 278.061C884.499 276.297 885.999 274.573 887.372 272.887C888.81 271.199 889.955 269.431 890.806 267.585C891.717 265.671 892.102 263.532 891.961 261.169L891.892 260.019C891.778 258.102 891.344 256.75 890.592 255.961C889.899 255.105 888.85 254.719 887.445 254.803C885.848 254.898 884.768 255.604 884.206 256.92C883.639 258.172 883.495 260.04 883.771 262.524C883.885 263.351 883.526 263.789 882.696 263.839L874.263 264.343C873.56 264.385 873.12 263.994 872.943 263.172C872.359 257.693 873.253 253.344 875.625 250.124C878.057 246.837 881.892 245.037 887.131 244.724C892.178 244.422 896.089 245.502 898.865 247.965C901.641 250.428 903.184 254.246 903.493 259.421C903.703 262.935 903.406 265.998 902.6 268.611C901.855 271.156 900.805 273.431 899.45 275.435C898.155 277.372 896.725 279.188 895.16 280.885C893.654 282.514 892.215 284.171 890.841 285.856C889.463 287.477 888.352 289.274 887.509 291.248C886.729 293.218 886.417 295.513 886.574 298.132L904.398 297.066C905.165 297.02 905.571 297.381 905.617 298.147L906.087 306.005C906.133 306.772 905.772 307.178 905.006 307.224L875.874 308.966ZM930.62 306.269C924.998 306.606 920.62 305.232 917.486 302.15C914.417 299.064 912.694 294.39 912.32 288.129L910.79 262.543C910.412 256.218 911.564 251.373 914.248 248.007C916.992 244.573 921.175 242.688 926.797 242.352C932.419 242.015 936.765 243.39 939.835 246.477C942.964 249.495 944.718 254.167 945.097 260.491L946.627 286.078C947.001 292.339 945.816 297.186 943.073 300.62C940.392 304.05 936.241 305.933 930.62 306.269ZM930.006 296.016C931.923 295.901 933.253 295.084 933.995 293.565C934.802 292.042 935.109 289.684 934.918 286.489L933.423 261.478C933.232 258.284 932.645 255.979 931.663 254.563C930.744 253.143 929.327 252.491 927.41 252.605C925.494 252.72 924.132 253.539 923.326 255.061C922.583 256.58 922.307 258.937 922.498 262.131L923.994 287.143C924.185 290.337 924.74 292.644 925.658 294.064C926.64 295.48 928.09 296.13 930.006 296.016ZM955.79 304.187C954.959 304.237 954.521 303.878 954.475 303.112L954.028 295.637C953.814 292.059 954.108 288.932 954.91 286.256C955.707 283.515 956.814 281.109 958.229 279.037C959.64 276.901 961.16 274.982 962.789 273.282C964.415 271.518 965.915 269.793 967.288 268.108C968.726 266.419 969.871 264.652 970.722 262.806C971.633 260.892 972.018 258.753 971.877 256.39L971.808 255.24C971.694 253.323 971.26 251.97 970.508 251.182C969.815 250.326 968.766 249.94 967.361 250.024C965.764 250.119 964.684 250.825 964.122 252.141C963.555 253.393 963.411 255.261 963.687 257.745C963.801 258.572 963.442 259.01 962.612 259.059L954.179 259.564C953.476 259.606 953.036 259.215 952.859 258.392C952.275 252.913 953.169 248.564 955.541 245.345C957.973 242.058 961.808 240.258 967.047 239.945C972.094 239.643 976.005 240.723 978.781 243.186C981.557 245.648 983.1 249.467 983.409 254.642C983.619 258.156 983.322 261.219 982.516 263.832C981.771 266.377 980.721 268.651 979.366 270.656C978.071 272.593 976.641 274.409 975.076 276.106C973.57 277.734 972.131 279.391 970.757 281.076C969.379 282.698 968.268 284.495 967.425 286.469C966.645 288.439 966.333 290.734 966.49 293.353L984.314 292.287C985.081 292.241 985.487 292.602 985.533 293.368L986.003 301.226C986.049 301.993 985.688 302.399 984.922 302.445L955.79 304.187ZM1008.14 301.633C1004.24 301.867 1001.04 301.321 998.521 299.997C996.069 298.669 994.254 296.726 993.075 294.167C991.957 291.542 991.452 288.462 991.561 284.929C991.658 284.411 991.767 284.084 991.887 283.948C992.067 283.745 992.349 283.632 992.732 283.609L1001.17 283.105C1001.93 283.059 1002.34 283.451 1002.39 284.282C1002.46 286.522 1002.86 288.325 1003.58 289.692C1004.37 291.056 1005.75 291.678 1007.73 291.56C1009.65 291.445 1010.98 290.629 1011.72 289.109C1012.52 287.523 1012.83 285.1 1012.63 281.842L1012.45 278.871C1012.33 276.827 1012.01 275.179 1011.48 273.928C1011.02 272.61 1010.29 271.66 1009.29 271.078C1008.3 270.497 1007.03 270.252 1005.5 270.343C1003.65 270.454 1001.69 270.892 999.615 271.657C997.541 272.358 995.603 273.179 993.8 274.12C993.176 274.414 992.699 274.475 992.368 274.302C992.101 274.126 991.952 273.782 991.922 273.271L992.059 240.18C992.141 239.406 992.533 238.997 993.236 238.955L1017.38 237.511C1018.15 237.465 1018.56 237.826 1018.6 238.592L1019.07 246.45C1019.12 247.217 1018.76 247.623 1017.99 247.669L1002.28 248.609L1002.24 262.556C1003.62 261.961 1004.94 261.497 1006.2 261.165C1007.46 260.833 1008.89 260.619 1010.49 260.524C1014.83 260.264 1018.09 261.672 1020.26 264.748C1022.5 267.82 1023.82 272.838 1024.24 279.801C1024.65 286.637 1023.59 291.894 1021.05 295.572C1018.51 299.25 1014.21 301.271 1008.14 301.633Z" fill="white"/>
<path d="M1167.04 286.94C1160.97 287.303 1156.23 285.855 1152.83 282.596C1149.49 279.27 1147.6 273.901 1147.16 266.49L1145.91 245.695C1145.49 238.54 1146.73 233.08 1149.65 229.315C1152.62 225.483 1157.15 223.385 1163.22 223.022C1167.5 222.766 1171.1 223.481 1174.02 225.165C1176.94 226.85 1179.14 229.315 1180.62 232.56C1182.16 235.802 1182.8 239.675 1182.56 244.177C1182.48 244.951 1182.21 245.352 1181.77 245.379L1171.71 245.98C1171 246.022 1170.69 245.624 1170.77 244.786C1170.8 241.065 1170.28 238.276 1169.21 236.416C1168.13 234.493 1166.32 233.608 1163.76 233.761C1161.4 233.902 1159.72 234.868 1158.74 236.658C1157.82 238.38 1157.48 241.285 1157.72 245.374L1158.9 265.115C1159.16 269.331 1159.88 272.269 1161.07 273.929C1162.32 275.585 1164.1 276.345 1166.4 276.207C1169.08 276.047 1170.78 274.919 1171.48 272.825C1172.19 270.668 1172.37 267.868 1172.04 264.425C1171.93 263.599 1172.19 263.166 1172.83 263.128L1182.7 262.538C1183.27 262.503 1183.65 262.866 1183.82 263.625C1184.8 270.426 1183.88 275.931 1181.06 280.139C1178.29 284.279 1173.62 286.546 1167.04 286.94ZM1190.33 284.97C1189.69 285.008 1189.41 284.608 1189.49 283.77L1198.8 222.337C1198.9 221.754 1199.23 221.446 1199.8 221.411L1212.65 220.643C1213.28 220.605 1213.68 220.87 1213.85 221.437L1230.32 281.329C1230.56 282.148 1230.36 282.576 1229.72 282.615L1218.7 283.274C1218.12 283.308 1217.76 283.041 1217.59 282.474L1209.61 245.541C1209.16 243.388 1208.72 241.235 1208.27 239.082C1207.81 236.865 1207.39 234.678 1207.01 232.521L1206.82 232.532C1206.63 234.724 1206.47 236.945 1206.35 239.196C1206.22 241.384 1206.04 243.607 1205.79 245.866L1202.07 283.403C1202.04 283.981 1201.71 284.29 1201.07 284.328L1190.33 284.97ZM1201.53 271.221L1202.58 261.445L1214.37 260.74L1216.77 270.31L1201.53 271.221ZM1237.07 282.175C1236.43 282.213 1236.09 281.849 1236.05 281.082L1232.43 220.614C1232.38 219.848 1232.68 219.445 1233.32 219.407L1245.87 218.656C1246.45 218.622 1246.81 218.856 1246.97 219.36L1256.57 248.022C1257.12 249.592 1257.67 251.354 1258.24 253.308C1258.86 255.194 1259.46 257.114 1260.02 259.068C1260.59 261.021 1261.04 262.725 1261.39 264.179L1261.58 264.168C1261.44 262.894 1261.25 261.366 1261.01 259.585C1260.78 257.804 1260.54 255.959 1260.3 254.05C1260.12 252.137 1259.95 250.288 1259.78 248.503C1259.67 246.715 1259.58 245.181 1259.5 243.904L1258.01 218.988C1257.97 218.285 1258.27 217.915 1258.91 217.877L1268.01 217.332C1268.71 217.29 1269.08 217.621 1269.13 218.323L1272.75 278.887C1272.79 279.654 1272.5 280.056 1271.86 280.094L1259.4 280.839C1258.89 280.87 1258.52 280.636 1258.3 280.136L1248.54 251.964C1247.6 249.199 1246.73 246.398 1245.92 243.562C1245.17 240.657 1244.5 238.037 1243.91 235.7L1243.72 235.711C1243.96 237.556 1244.22 239.753 1244.5 242.3C1244.78 244.848 1245.03 247.43 1245.25 250.045C1245.53 252.593 1245.73 254.793 1245.84 256.646L1247.26 280.412C1247.3 281.178 1246.97 281.583 1246.27 281.625L1237.07 282.175ZM1279.33 279.648C1278.69 279.686 1278.41 279.286 1278.49 278.448L1287.8 217.015C1287.89 216.432 1288.22 216.124 1288.8 216.089L1301.64 215.321C1302.28 215.283 1302.68 215.548 1302.84 216.115L1319.31 276.007C1319.55 276.826 1319.35 277.254 1318.71 277.292L1307.69 277.952C1307.12 277.986 1306.75 277.719 1306.59 277.152L1298.61 240.219C1298.16 238.066 1297.71 235.913 1297.26 233.759C1296.81 231.543 1296.39 229.356 1296 227.199L1295.81 227.21C1295.62 229.402 1295.47 231.623 1295.34 233.874C1295.22 236.062 1295.03 238.285 1294.78 240.544L1291.06 278.08C1291.03 278.659 1290.7 278.968 1290.06 279.006L1279.33 279.648ZM1290.53 265.899L1291.58 256.123L1303.36 255.418L1305.76 264.988L1290.53 265.899ZM1326.26 276.841C1325.49 276.887 1325.08 276.527 1325.04 275.76L1321.42 215.292C1321.38 214.525 1321.74 214.119 1322.5 214.073L1336.21 213.254C1343.43 212.822 1348.99 214.702 1352.89 218.892C1356.8 223.018 1359.01 229.554 1359.55 238.498L1360.03 246.547C1360.6 256.002 1359.23 263.169 1355.93 268.046C1352.63 272.924 1347.47 275.573 1340.44 275.993L1326.26 276.841ZM1336.35 265.562L1339.52 265.373C1342.9 265.171 1345.28 263.618 1346.64 260.716C1348 257.749 1348.51 253.295 1348.15 247.354L1347.67 239.208C1347.34 233.842 1346.31 229.897 1344.55 227.373C1342.86 224.845 1340.23 223.688 1336.65 223.902L1333.87 224.069L1336.35 265.562ZM1365.79 274.477C1365.16 274.515 1364.87 274.115 1364.95 273.277L1374.26 211.844C1374.36 211.261 1374.69 210.953 1375.26 210.918L1388.11 210.15C1388.74 210.112 1389.15 210.377 1389.31 210.944L1405.78 270.836C1406.02 271.655 1405.82 272.083 1405.18 272.122L1394.16 272.781C1393.58 272.815 1393.22 272.549 1393.05 271.981L1385.07 235.048C1384.63 232.895 1384.18 230.742 1383.73 228.589C1383.27 226.372 1382.85 224.185 1382.47 222.028L1382.28 222.039C1382.09 224.231 1381.93 226.452 1381.81 228.703C1381.68 230.891 1381.5 233.114 1381.25 235.373L1377.53 272.91C1377.5 273.488 1377.17 273.797 1376.53 273.835L1365.79 274.477ZM1376.99 260.728L1378.04 250.952L1389.83 250.247L1392.23 259.817L1376.99 260.728ZM1405.62 236.992C1404.92 237.034 1404.61 236.636 1404.69 235.798L1407.57 210.044C1407.66 209.334 1408.02 208.959 1408.66 208.921L1420.06 208.239C1420.51 208.213 1420.8 208.323 1420.95 208.571C1421.15 208.751 1421.23 209.035 1421.19 209.422L1415.15 235.461C1415.06 236.108 1414.7 236.45 1414.06 236.488L1405.62 236.992ZM1446.34 270.237C1442.25 270.482 1438.92 269.944 1436.34 268.623C1433.82 267.235 1431.96 265.166 1430.77 262.417C1429.64 259.599 1429.12 256.264 1429.21 252.412C1429.23 251.577 1429.52 251.143 1430.1 251.109L1439.87 250.524C1440.44 250.49 1440.72 250.858 1440.71 251.628C1440.61 254.327 1440.99 256.42 1441.85 257.907C1442.77 259.327 1444.12 259.983 1445.91 259.876C1447.57 259.777 1448.76 259.225 1449.47 258.221C1450.18 257.217 1450.47 255.629 1450.34 253.457C1450.22 251.604 1449.81 250.026 1449.09 248.723C1448.43 247.351 1447.37 246.197 1445.9 245.259L1437.38 239.421C1434.24 237.301 1431.86 234.975 1430.23 232.443C1428.6 229.912 1427.71 226.696 1427.54 222.795C1427.3 217.808 1428.41 213.895 1430.87 211.055C1433.33 208.215 1437.15 206.64 1442.32 206.331C1448.14 205.983 1452.51 207.324 1455.45 210.354C1458.39 213.321 1459.77 217.726 1459.61 223.57C1459.6 224.468 1459.27 224.936 1458.63 224.974L1448.76 225.565C1448.12 225.603 1447.81 225.173 1447.82 224.275C1447.94 222.023 1447.61 220.184 1446.82 218.757C1446.09 217.262 1444.92 216.562 1443.33 216.657C1441.98 216.738 1440.96 217.248 1440.24 218.188C1439.59 219.061 1439.29 220.425 1439.33 222.282C1439.45 224.134 1439.92 225.677 1440.77 226.909C1441.6 228.077 1442.69 229.133 1444.03 230.079L1452.45 235.731C1454.72 237.198 1456.54 238.724 1457.92 240.309C1459.29 241.829 1460.29 243.597 1460.93 245.61C1461.62 247.557 1462.05 249.935 1462.22 252.746C1462.47 258.052 1461.34 262.223 1458.83 265.259C1456.32 268.23 1452.15 269.89 1446.34 270.237Z" fill="white"/>
</svg>
