<svg width="207" height="191" viewBox="0 0 207 191" fill="none" xmlns="http://www.w3.org/2000/svg">
<path d="M47.9865 159.227H33.4175C28.4369 159.227 24.7741 157.78 22.225 155.435C20.0014 153.404 18.6445 150.643 18.6445 147.576C18.6445 144.2 20.374 141.133 23.1309 138.995C25.6016 137.101 28.935 135.929 33.4214 135.929H47.9904V142.097H33.4214C30.9115 142.097 29.3468 142.682 28.1546 143.615C26.88 144.615 26.0957 146.062 26.0957 147.611C26.0957 149.023 26.7545 150.333 27.8252 151.298C29.0173 152.4 30.7899 153.09 33.4214 153.09H47.9904V159.223L47.9865 159.227Z" fill="white"/>
<path d="M60.3774 159.227C53.5459 159.227 51.3223 156.714 51.3223 151.647V135.929H58.8127V151.059C58.8127 152.749 59.346 153.262 61.2833 153.262H80.5858V159.223H60.3774V159.227Z" fill="white"/>
<path d="M96.4722 159.227C91.4916 159.227 87.8288 157.78 85.2797 155.435C83.0561 153.404 81.6992 150.643 81.6992 147.576C81.6992 144.2 83.4287 141.133 86.1856 138.995C88.6563 137.101 91.9897 135.929 96.4761 135.929H102.319C106.806 135.929 110.139 137.101 112.61 138.995C115.367 141.133 117.096 144.2 117.096 147.576C117.096 150.643 115.739 153.4 113.516 155.435C110.963 157.78 107.3 159.227 102.323 159.227H96.48H96.4722ZM96.4722 142.097C93.9623 142.097 92.3975 142.682 91.2054 143.615C89.9308 144.615 89.1465 146.062 89.1465 147.611C89.1465 149.023 89.8053 150.333 90.8759 151.298C92.0681 152.4 93.8407 153.09 96.4722 153.09H102.315C104.951 153.09 106.719 152.4 107.912 151.298C108.982 150.333 109.641 149.023 109.641 147.611C109.641 146.058 108.861 144.611 107.582 143.615C106.39 142.686 104.825 142.097 102.315 142.097H96.4722Z" fill="white"/>
<path d="M130.269 159.227C123.273 159.227 120.516 156.988 120.516 151.784V135.929H128.006V151.094C128.006 152.541 128.83 153.266 130.681 153.266H142.246C144.097 153.266 145.003 152.576 145.003 151.094V135.929H152.493V151.78C152.493 156.984 149.736 159.223 142.74 159.223H130.269V159.227Z" fill="white"/>
<path d="M173.275 135.929C177.762 135.929 181.095 137.101 183.566 138.995C186.323 141.133 188.052 144.2 188.052 147.576C188.052 150.643 186.695 153.4 184.472 155.435C181.919 157.78 178.256 159.227 173.275 159.227H158.255C157.063 159.227 156.443 158.745 156.443 157.745V137.376C156.443 136.411 157.059 135.929 158.255 135.929H173.275ZM164.428 142.097C164.059 142.097 163.895 142.235 163.895 142.58V152.608C163.895 152.953 164.059 153.09 164.428 153.09H173.275C175.911 153.09 177.679 152.4 178.871 151.298C179.942 150.333 180.601 149.023 180.601 147.611C180.601 146.058 179.82 144.611 178.542 143.615C177.35 142.686 175.785 142.097 173.275 142.097H164.428Z" fill="white"/>
<path d="M30.091 172.894H10.0905C9.18456 172.894 8.69042 173.067 8.361 173.341C7.98844 173.651 7.78452 174.067 7.78452 174.549C7.78452 175.067 8.07472 175.514 8.48257 175.789C8.81199 176.032 9.22377 176.134 10.0865 176.134H22.3104C25.4399 176.134 27.538 176.961 29.0204 178.236C30.5027 179.51 31.4087 181.236 31.4087 183.059C31.4087 184.75 30.6282 186.369 29.3498 187.608C27.8282 189.091 25.6046 190.02 22.3104 190.02H0.745121V184.059H20.9927C22.1457 184.059 22.7222 183.852 23.0908 183.471C23.381 183.197 23.5418 182.816 23.5418 182.404C23.5418 181.922 23.3379 181.475 22.9653 181.165C22.5967 180.82 22.0594 180.648 20.9888 180.648H9.67084C5.96878 180.648 3.82755 179.82 2.34516 178.545C0.862772 177.271 0 175.581 0 173.687C0 171.792 0.90591 170.102 2.3883 168.828C3.87069 167.553 5.96878 166.726 9.67084 166.726H30.0831V172.894H30.091Z" fill="white"/>
<path d="M44.0052 190.02C37.0089 190.02 34.252 187.781 34.252 182.577V166.726H41.7423V181.891C41.7423 183.338 42.5659 184.063 44.4169 184.063H55.9819C57.833 184.063 58.7389 183.373 58.7389 181.891V166.726H66.2292V182.577C66.2292 187.781 63.4723 190.02 56.4761 190.02H44.0052Z" fill="white"/>
<path d="M86.8102 188.364L78.3747 173.717C78.2923 173.544 78.0452 173.443 77.8374 173.443C77.508 173.443 77.1785 173.65 77.1785 174.062V190.019H70.0176V172.96C70.0176 170.34 70.9627 168.721 72.6098 167.619C73.8451 166.791 75.4922 166.207 77.4648 166.207C81.0061 166.207 83.061 167.964 84.5042 170.548L90.8024 181.992C90.9671 182.337 91.1711 182.439 91.5005 182.439C91.8299 182.439 92.0338 182.337 92.1985 181.992L98.4967 170.548C99.936 167.964 101.995 166.207 105.536 166.207C107.513 166.207 109.156 166.795 110.391 167.619C112.038 168.721 112.983 170.34 112.983 172.96V190.019H105.822V174.062C105.822 173.65 105.493 173.443 105.164 173.443C104.956 173.443 104.713 173.544 104.63 173.717L96.1947 188.364C95.3319 189.847 93.477 190.502 91.5044 190.502C89.5318 190.502 87.6768 189.847 86.8141 188.364H86.8102Z" fill="white"/>
<path d="M133.648 188.364L125.213 173.717C125.13 173.544 124.883 173.443 124.675 173.443C124.346 173.443 124.016 173.65 124.016 174.062V190.019H116.855V172.96C116.855 170.34 117.801 168.721 119.448 167.619C120.683 166.791 122.33 166.207 124.303 166.207C127.844 166.207 129.899 167.964 131.342 170.548L137.64 181.992C137.805 182.337 138.009 182.439 138.338 182.439C138.668 182.439 138.872 182.337 139.036 181.992L145.335 170.548C146.774 167.964 148.833 166.207 152.374 166.207C154.351 166.207 155.994 166.795 157.229 167.619C158.876 168.721 159.821 170.34 159.821 172.96V190.019H152.66V174.062C152.66 173.65 152.331 173.443 152.001 173.443C151.794 173.443 151.55 173.544 151.468 173.717L143.033 188.364C142.17 189.847 140.315 190.502 138.342 190.502C136.37 190.502 134.515 189.847 133.652 188.364H133.648Z" fill="white"/>
<path d="M171.397 166.726V190.024H163.906V166.726H171.397Z" fill="white"/>
<path d="M206.211 166.726V172.894H194.031V190.024H186.54V172.894H174.316V166.726H206.211Z" fill="white"/>
<g clip-path="url(#clip0_5106_2039)">
<g clip-path="url(#clip1_5106_2039)">
<path d="M85.0789 59.2361C92.0667 48.3551 97.7666 35.6592 104.095 23.7482C109.516 13.1615 110.581 9.47453 120.55 3.71929C123.031 1.8145 120.073 1.38122 117.601 0.915243C101.535 -1.5291 88.219 7.13646 78.8146 19.8405C76.0878 23.1514 72.3594 27.6886 69.577 31.0649C66.9059 34.2858 63.6227 38.5532 59.473 38.7576C54.6236 39.3053 50.776 34.6047 52.4375 29.7896C53.8207 25.1379 59.1391 20.7725 63.5352 17.3553C66.1507 15.2379 69.5055 13.6111 71.5485 11.1913C73.1226 9.29468 71.4531 8.01937 69.7519 7.67602C64.8469 6.62143 59.5366 8.05207 54.8065 9.67073C42.5242 13.9463 32.603 22.3993 26.2751 33.6482C23.0077 39.1909 20.4082 44.3575 19.7086 50.2108C16.9262 69.553 33.9147 85.3227 52.2944 83.3771C60.1884 82.6822 67.3829 78.3085 73.0669 72.774C77.3677 68.6701 81.7957 64.1003 84.9915 59.3587L85.0789 59.2279V59.2361Z" fill="white"/>
<path d="M163.853 43.1076C148.876 37.4505 140.719 58.8855 129.272 65.818C121.751 70.118 124.812 61.428 128.946 56.2286C132.46 51.716 136.633 47.4323 140.799 43.6881C145.171 39.7804 149.114 37.3361 150.895 33.6164C153.415 28.2617 151.817 21.9996 149.082 16.9638C142.047 3.55671 126.307 1.16142 116.417 12.8191C113.937 15.6885 111.512 19.9068 109.493 23.7246C103.07 36.0526 97.2822 48.2661 90.4932 60.1199C82.2494 74.2546 78.8946 87.3511 93.1087 98.8043C99.9454 104.167 109.175 104.829 116.942 101.355C127.34 97.2674 136.037 86.4191 143.971 77.3284C147.318 73.7805 152.461 66.8317 156.841 66.2839C159.409 66.194 158.996 71.6713 158.376 74.1892C156.293 83.5578 150.418 91.9863 143.184 98.1094C139.67 101.388 131.696 106.595 133.835 110.094C136.053 112.849 144.217 112.179 148.192 111.476C161.039 109.187 173.782 103.963 181.31 94.1037C189.308 83.9175 187.956 69.6929 181.191 59.1635C177.153 52.5989 170.761 45.74 163.98 43.1485L163.853 43.0995V43.1076Z" fill="white"/>
</g>
</g>
<defs>
<clipPath id="clip0_5106_2039">
<rect width="167.397" height="111.598" fill="white" transform="translate(19.4062 0.499023)"/>
</clipPath>
<clipPath id="clip1_5106_2039">
<rect width="167.397" height="111.598" fill="white" transform="translate(19.4062 0.499023)"/>
</clipPath>
</defs>
</svg>
