<svg width="221" height="221" viewBox="0 0 221 221" fill="none" xmlns="http://www.w3.org/2000/svg">
<path d="M176.472 62.5209L175.835 62.0863C167.908 60.333 159.359 60.3662 152.788 65.5192C150.585 67.2467 147.458 64.1563 149.683 62.4141C153.841 59.1544 158.589 57.3495 163.838 56.8191C166.247 56.576 168.663 56.6202 171.072 56.8523C160.53 33.9125 137.403 17.96 110.5 17.96C83.5966 17.96 58.5905 35.2311 48.7007 59.6774L44.5312 62.5246C28.6818 69.9723 17.6797 86.0243 17.6797 104.699C17.6797 127.977 34.7372 147.271 57.0324 150.774C62.8779 150.059 68.4029 147.816 72.7271 143.366C74.7014 141.333 77.8064 144.446 75.8322 146.471C73.891 148.472 71.7216 150.055 69.4158 151.345H107.612V128.582L83.2209 132.548L85.9576 121.528L61.2682 102.305L69.9757 98.1572L64.458 81.0076L80.4253 84.7572L81.2724 74.7054L94.0978 86.3779L90.3813 63.1766L101.354 67.0293L110.496 52.889L119.638 67.0293L130.611 63.1766L126.894 86.3779L139.72 74.7054L140.567 84.7572L156.534 81.0076L151.016 98.1572L159.724 102.305L135.034 121.528L137.771 132.548L113.38 128.582V151.345H156.67C182.432 151.345 203.316 130.46 203.316 104.699C203.316 86.028 192.318 69.9723 176.468 62.5246L176.472 62.5209Z" fill="white"/>
<path d="M43.0249 203.044C41.7726 203.044 40.6345 202.738 39.6105 202.126C38.5865 201.515 37.7688 200.697 37.1574 199.673C36.546 198.649 36.2402 197.515 36.2402 196.263V176.837C36.2402 175.584 36.546 174.446 37.1574 173.426C37.7688 172.402 38.5865 171.588 39.6105 170.973C40.6345 170.361 41.7689 170.056 43.0249 170.056H69.1398V177.205H44.8556C44.3657 177.205 43.9937 177.327 43.7321 177.57C43.4743 177.813 43.3417 178.196 43.3417 178.715V194.384C43.3417 194.874 43.4706 195.25 43.7321 195.507C43.99 195.765 44.3657 195.898 44.8556 195.898H69.1398V203.047H43.0249V203.044Z" fill="white"/>
<path d="M74.7207 203.018V170.074H100.883C102.136 170.074 103.274 170.38 104.294 170.991C105.318 171.603 106.143 172.428 106.769 173.467C107.396 174.505 107.709 175.636 107.709 176.855V185.378C107.709 186.601 107.396 187.732 106.769 188.767C106.143 189.806 105.318 190.631 104.294 191.242C103.27 191.854 102.132 192.159 100.883 192.159L81.8222 192.204V203.014H74.7207V203.018ZM100.515 185.014V177.179H81.8222V185.014H100.515Z" fill="white"/>
<path d="M120.074 203.044C118.821 203.044 117.683 202.738 116.659 202.126C115.635 201.515 114.818 200.697 114.206 199.673C113.595 198.649 113.289 197.515 113.289 196.263V176.837C113.289 175.584 113.595 174.446 114.206 173.426C114.818 172.402 115.635 171.588 116.659 170.973C117.683 170.361 118.818 170.056 120.074 170.056H146.189V177.205H121.904C121.414 177.205 121.042 177.327 120.781 177.57C120.523 177.813 120.391 178.196 120.391 178.715V194.384C120.391 194.874 120.519 195.25 120.781 195.507C121.039 195.765 121.414 195.898 121.904 195.898H146.189V203.047H120.074V203.044Z" fill="white"/>
<path d="M151.768 176.833C151.768 175.58 152.073 174.442 152.685 173.422C153.296 172.398 154.121 171.584 155.16 170.969C156.199 170.357 157.326 170.052 158.549 170.052H177.93C179.183 170.052 180.321 170.357 181.345 170.969C182.369 171.58 183.19 172.398 183.82 173.422C184.446 174.446 184.759 175.584 184.759 176.833V203.04H177.566V192.41H158.873V203.04H151.771V176.833H151.768ZM177.562 185.264V177.201H158.869V185.264H177.562Z" fill="white"/>
</svg>
