<svg width="147" height="40" viewBox="0 0 147 40" fill="none" xmlns="http://www.w3.org/2000/svg">
<path d="M82.7704 18.9236H77.4798C75.6712 18.9236 74.3411 18.3962 73.4154 17.5413C72.608 16.8009 72.1152 15.7945 72.1152 14.6767C72.1152 13.4459 72.7433 12.3281 73.7444 11.549C74.6416 10.8586 75.8521 10.4312 77.4813 10.4312H82.7718V12.6797H77.4813C76.5698 12.6797 76.0016 12.8927 75.5687 13.2329C75.1059 13.5974 74.821 14.1249 74.821 14.6895C74.821 15.2042 75.0603 15.6816 75.4491 16.0333C75.882 16.4349 76.5257 16.6865 77.4813 16.6865H82.7718V18.9222L82.7704 18.9236Z" fill="#F5F5F5"/>
<path d="M87.2687 18.9236C84.7879 18.9236 83.9805 18.0074 83.9805 16.1605V10.4312H86.7005V15.9461C86.7005 16.5622 86.8942 16.7494 87.5977 16.7494H94.6072V18.9222H87.2687V18.9236Z" fill="#F5F5F5"/>
<path d="M100.378 18.9236C98.5697 18.9236 97.2396 18.3962 96.3139 17.5413C95.5064 16.8009 95.0137 15.7945 95.0137 14.6767C95.0137 13.4459 95.6417 12.3281 96.6429 11.549C97.54 10.8586 98.7505 10.4312 100.38 10.4312H102.502C104.131 10.4312 105.341 10.8586 106.238 11.549C107.24 12.3281 107.868 13.4459 107.868 14.6767C107.868 15.7945 107.375 16.7994 106.567 17.5413C105.64 18.3962 104.31 18.9236 102.503 18.9236H100.381H100.378ZM100.378 12.6797C99.4669 12.6797 98.8986 12.8927 98.4657 13.2329C98.0029 13.5974 97.7181 14.1249 97.7181 14.6895C97.7181 15.2042 97.9573 15.6816 98.3461 16.0333C98.779 16.4349 99.4227 16.6865 100.378 16.6865H102.5C103.457 16.6865 104.099 16.4349 104.532 16.0333C104.921 15.6816 105.16 15.2042 105.16 14.6895C105.16 14.1235 104.877 13.596 104.413 13.2329C103.98 12.8941 103.412 12.6797 102.5 12.6797H100.378Z" fill="#F5F5F5"/>
<path d="M112.649 18.9236C110.109 18.9236 109.107 18.1074 109.107 16.2105V10.4312H111.827V15.9589C111.827 16.4864 112.127 16.7508 112.799 16.7508H116.998C117.671 16.7508 118 16.4993 118 15.9589V10.4312H120.72V16.2091C120.72 18.106 119.718 18.9222 117.178 18.9222H112.649V18.9236Z" fill="#F5F5F5"/>
<path d="M128.269 10.4312C129.898 10.4312 131.108 10.8586 132.005 11.549C133.007 12.3281 133.635 13.4459 133.635 14.6767C133.635 15.7945 133.142 16.7994 132.334 17.5413C131.407 18.3962 130.077 18.9236 128.269 18.9236H122.814C122.381 18.9236 122.156 18.7478 122.156 18.3833V10.9586C122.156 10.607 122.38 10.4312 122.814 10.4312H128.269ZM125.056 12.6797C124.922 12.6797 124.862 12.7297 124.862 12.8555V16.5107C124.862 16.6365 124.922 16.6865 125.056 16.6865H128.269C129.226 16.6865 129.868 16.4349 130.301 16.0333C130.689 15.6816 130.929 15.2042 130.929 14.6895C130.929 14.1235 130.645 13.596 130.181 13.2329C129.748 12.8941 129.18 12.6797 128.269 12.6797H125.056Z" fill="#F5F5F5"/>
<path d="M83.0424 23.8475H75.7795C75.4505 23.8475 75.2711 23.9101 75.1514 24.0097C75.0161 24.1222 74.9421 24.273 74.9421 24.4481C74.9421 24.6359 75.0475 24.7982 75.1956 24.8978C75.3152 24.986 75.4647 25.023 75.778 25.023H80.217C81.3534 25.023 82.1153 25.3233 82.6536 25.7858C83.1919 26.2483 83.5209 26.8745 83.5209 27.5363C83.5209 28.1497 83.2375 28.7374 82.7732 29.1871C82.2207 29.7251 81.4132 30.0624 80.217 30.0624H72.3858V27.8992H79.7385C80.1572 27.8992 80.3665 27.8238 80.5004 27.6857C80.6058 27.5861 80.6641 27.448 80.6641 27.2986C80.6641 27.1236 80.5901 26.9613 80.4548 26.8489C80.3209 26.7237 80.1258 26.661 79.7371 26.661H75.6271C74.2827 26.661 73.5052 26.3608 72.9669 25.8982C72.4285 25.4357 72.1152 24.8223 72.1152 24.135C72.1152 23.4476 72.4442 22.8342 72.9825 22.3717C73.5208 21.9092 74.2827 21.6089 75.6271 21.6089H83.0396V23.8475H83.0424Z" fill="#F5F5F5"/>
<path d="M88.0945 30.0624C85.5539 30.0624 84.5527 29.2497 84.5527 27.3612V21.6089H87.2728V27.1122C87.2728 27.6373 87.5718 27.9006 88.244 27.9006H92.4437C93.1159 27.9006 93.4449 27.6501 93.4449 27.1122V21.6089H96.1649V27.3612C96.1649 29.2497 95.1638 30.0624 92.6231 30.0624H88.0945Z" fill="#F5F5F5"/>
<path d="M103.639 29.4617L100.576 24.1462C100.546 24.0836 100.456 24.0466 100.381 24.0466C100.261 24.0466 100.141 24.122 100.141 24.2715V30.0622H97.541V23.8716C97.541 22.9209 97.8842 22.3331 98.4823 21.9332C98.9309 21.6329 99.5291 21.4209 100.245 21.4209C101.531 21.4209 102.278 22.0585 102.802 22.9963L105.089 27.1491C105.149 27.2743 105.223 27.3113 105.342 27.3113C105.462 27.3113 105.536 27.2743 105.596 27.1491L107.883 22.9963C108.406 22.0585 109.153 21.4209 110.439 21.4209C111.157 21.4209 111.754 21.6344 112.202 21.9332C112.8 22.3331 113.144 22.9209 113.144 23.8716V30.0622H110.543V24.2715C110.543 24.122 110.423 24.0466 110.304 24.0466C110.228 24.0466 110.14 24.0836 110.11 24.1462L107.047 29.4617C106.734 29.9996 106.06 30.2373 105.344 30.2373C104.627 30.2373 103.954 29.9996 103.64 29.4617H103.639Z" fill="#F5F5F5"/>
<path d="M120.649 29.4617L117.586 24.1462C117.556 24.0836 117.466 24.0466 117.39 24.0466C117.271 24.0466 117.151 24.122 117.151 24.2715V30.0622H114.551V23.8716C114.551 22.9209 114.894 22.3331 115.492 21.9332C115.941 21.6329 116.539 21.4209 117.255 21.4209C118.541 21.4209 119.287 22.0585 119.811 22.9963L122.099 27.1491C122.158 27.2743 122.232 27.3113 122.352 27.3113C122.472 27.3113 122.546 27.2743 122.606 27.1491L124.893 22.9963C125.415 22.0585 126.163 21.4209 127.449 21.4209C128.167 21.4209 128.763 21.6344 129.212 21.9332C129.81 22.3331 130.153 22.9209 130.153 23.8716V30.0622H127.553V24.2715C127.553 24.122 127.433 24.0466 127.314 24.0466C127.238 24.0466 127.15 24.0836 127.12 24.1462L124.057 29.4617C123.743 29.9996 123.07 30.2373 122.353 30.2373C121.637 30.2373 120.964 29.9996 120.65 29.4617H120.649Z" fill="#F5F5F5"/>
<path d="M134.355 21.6089V30.0638H131.635V21.6089H134.355Z" fill="#F5F5F5"/>
<path d="M146.998 21.6089V23.8475H142.575V30.0638H139.855V23.8475H135.416V21.6089H146.998Z" fill="#F5F5F5"/>
<g clip-path="url(#clip0_4961_27)">
<g clip-path="url(#clip1_4961_27)">
<path d="M24.1452 21.0536C26.7144 17.1535 28.8101 12.6029 31.1368 8.33362C33.1301 4.53902 33.5218 3.21751 37.1871 1.15465C38.099 0.471921 37.0117 0.316621 36.1027 0.1496C30.1956 -0.726526 25.2998 2.37947 21.842 6.93299C20.8395 8.11971 19.4686 9.74597 18.4456 10.9561C17.4636 12.1106 16.2564 13.6402 14.7307 13.7134C12.9477 13.9098 11.533 12.2249 12.1439 10.499C12.6525 8.83175 14.6079 7.26703 16.2243 6.04221C17.1859 5.28329 18.4193 4.70018 19.1705 3.83285C19.7492 3.15304 19.1354 2.69593 18.5099 2.57287C16.7065 2.19487 14.754 2.70765 13.0149 3.28783C8.4991 4.82032 4.85136 7.85013 2.52475 11.8821C1.32345 13.8687 0.367668 15.7206 0.110455 17.8186C-0.91255 24.7515 5.33363 30.4038 12.0913 29.7064C14.9937 29.4573 17.6389 27.8897 19.7288 25.906C21.3101 24.435 22.9381 22.797 24.1131 21.0975L24.1452 21.0506V21.0536Z" fill="#F5F5F5"/>
<path d="M53.1082 15.272C47.6016 13.2443 44.6027 20.9273 40.3937 23.4121C37.6287 24.9533 38.754 21.8385 40.2739 19.9749C41.5658 18.3575 43.1003 16.8221 44.6319 15.48C46.2395 14.0794 47.6892 13.2033 48.344 11.87C49.2705 9.95077 48.683 7.70625 47.6775 5.90125C45.0908 1.09574 39.3035 0.237198 35.6675 4.41565C34.7555 5.44414 33.864 6.95612 33.1216 8.32452C30.76 12.7432 28.6321 17.1209 26.136 21.3697C23.105 26.436 21.8715 31.1302 27.0976 35.2354C29.6113 37.1576 33.0047 37.3949 35.8604 36.1496C39.6835 34.6845 42.8811 30.7961 45.7981 27.5378C47.0287 26.2661 48.9198 23.7754 50.5303 23.5791C51.4744 23.5468 51.3224 25.5101 51.0944 26.4126C50.3286 29.7706 48.1686 32.7916 45.5088 34.9863C44.2169 36.1613 41.2852 38.0278 42.0715 39.282C42.887 40.2694 45.8888 40.0292 47.3502 39.7772C52.0735 38.9567 56.7589 37.0843 59.5269 33.5505C62.4673 29.8995 61.9704 24.801 59.483 21.0269C57.9982 18.6739 55.6482 16.2155 53.155 15.2866L53.1082 15.2691V15.272Z" fill="#5CB3FF"/>
</g>
</g>
<defs>
<clipPath id="clip0_4961_27">
<rect width="61.5469" height="40" fill="white"/>
</clipPath>
<clipPath id="clip1_4961_27">
<rect width="61.5469" height="40" fill="white"/>
</clipPath>
</defs>
</svg>
