<svg width="176" height="78" viewBox="0 0 176 78" fill="none" xmlns="http://www.w3.org/2000/svg">
<path d="M118.251 27.7656C119.989 21.1476 127.007 7.46646 141.178 5.68644C155.349 3.90641 167.129 17.8323 171.248 25.0177" stroke="#5CB3FF" stroke-width="3" stroke-linecap="round"/>
<path d="M173.873 7.55371L171.163 25.5818L153.287 22.9571" stroke="#5CB3FF" stroke-width="3" stroke-linecap="round"/>
<path d="M21.8979 50.7885C21.8979 53.3485 21.4072 55.4925 20.4259 57.2205C19.4659 58.9485 18.0686 60.2499 16.2339 61.1245C14.4206 61.9992 12.2232 62.4365 9.64191 62.4365H3.20991V39.5885H10.3139C12.6819 39.5885 14.7299 40.0152 16.4579 40.8685C18.1859 41.7219 19.5192 42.9805 20.4579 44.6445C21.4179 46.2872 21.8979 48.3352 21.8979 50.7885ZM17.6099 50.9165C17.6099 49.1032 17.3326 47.6099 16.7779 46.4365C16.2232 45.2632 15.4019 44.3992 14.3139 43.8445C13.2259 43.2685 11.8926 42.9805 10.3139 42.9805H7.30591V59.0125H9.76991C12.4152 59.0125 14.3779 58.3405 15.6579 56.9965C16.9592 55.6312 17.6099 53.6045 17.6099 50.9165ZM30.2604 45.0925V62.4365H26.2284V45.0925H30.2604ZM28.2444 38.4045C28.8417 38.4045 29.3644 38.5645 29.8124 38.8845C30.2604 39.1832 30.4844 39.7272 30.4844 40.5165C30.4844 41.2845 30.2604 41.8392 29.8124 42.1805C29.3644 42.5005 28.8417 42.6605 28.2444 42.6605C27.6257 42.6605 27.0924 42.5005 26.6444 42.1805C26.2177 41.8392 26.0044 41.2845 26.0044 40.5165C26.0044 39.7272 26.2177 39.1832 26.6444 38.8845C27.0924 38.5645 27.6257 38.4045 28.2444 38.4045ZM42.1679 44.7725C44.4079 44.7725 46.1039 45.2632 47.2559 46.2445C48.4292 47.2045 49.0159 48.7192 49.0159 50.7885V62.4365H46.1679L45.3679 60.0365H45.2399C44.7492 60.6552 44.2372 61.1779 43.7039 61.6045C43.1919 62.0099 42.5946 62.2979 41.9119 62.4685C41.2506 62.6605 40.4399 62.7565 39.4799 62.7565C38.4559 62.7565 37.5279 62.5645 36.6959 62.1805C35.8852 61.7965 35.2452 61.2099 34.7759 60.4205C34.3066 59.6099 34.0719 58.5965 34.0719 57.3805C34.0719 55.5885 34.7226 54.2445 36.0239 53.3485C37.3466 52.4312 39.3412 51.9299 42.0079 51.8445L45.0159 51.7485V50.8845C45.0159 49.7752 44.7492 48.9859 44.2159 48.5165C43.6826 48.0472 42.9359 47.8125 41.9759 47.8125C41.1012 47.8125 40.2586 47.9405 39.4479 48.1965C38.6372 48.4525 37.8479 48.7512 37.0799 49.0925L35.7999 46.2765C36.6532 45.8285 37.6239 45.4659 38.7119 45.1885C39.8212 44.9112 40.9732 44.7725 42.1679 44.7725ZM42.9039 54.3085C41.1332 54.3725 39.9066 54.6819 39.2239 55.2365C38.5412 55.7699 38.1999 56.4952 38.1999 57.4125C38.1999 58.2232 38.4452 58.8099 38.9359 59.1725C39.4266 59.5352 40.0559 59.7165 40.8239 59.7165C41.9972 59.7165 42.9892 59.3859 43.7999 58.7245C44.6106 58.0419 45.0159 57.0392 45.0159 55.7165V54.2445L42.9039 54.3085ZM73.7804 44.7725C75.7431 44.7725 77.2151 45.2739 78.1964 46.2765C79.1991 47.2792 79.7004 48.9005 79.7004 51.1405V62.4365H75.6684V51.9085C75.6684 50.6285 75.4337 49.6685 74.9644 49.0285C74.4951 48.3672 73.7484 48.0365 72.7244 48.0365C71.3164 48.0365 70.3137 48.4952 69.7164 49.4125C69.1191 50.3299 68.8204 51.6632 68.8204 53.4125V62.4365H64.7884V51.9085C64.7884 51.0552 64.6817 50.3405 64.4684 49.7645C64.2551 49.1885 63.9244 48.7619 63.4764 48.4845C63.0497 48.1859 62.4951 48.0365 61.8124 48.0365C60.8524 48.0365 60.0844 48.2712 59.5084 48.7405C58.9324 49.1885 58.5271 49.8499 58.2924 50.7245C58.0577 51.5992 57.9404 52.6765 57.9404 53.9565V62.4365H53.9084V45.0925H57.0124L57.5884 47.3645H57.8124C58.1751 46.7672 58.6124 46.2765 59.1244 45.8925C59.6577 45.5085 60.2444 45.2312 60.8844 45.0605C61.5457 44.8685 62.2071 44.7725 62.8684 44.7725C64.1697 44.7725 65.2684 44.9965 66.1644 45.4445C67.0604 45.8712 67.7324 46.5432 68.1804 47.4605H68.5004C69.0337 46.5219 69.7804 45.8392 70.7404 45.4125C71.7217 44.9859 72.7351 44.7725 73.7804 44.7725ZM100.08 53.7325C100.08 55.1832 99.8882 56.4632 99.5042 57.5725C99.1202 58.6819 98.5655 59.6312 97.8402 60.4205C97.1362 61.1885 96.2615 61.7752 95.2162 62.1805C94.1922 62.5645 93.0508 62.7565 91.7922 62.7565C90.5975 62.7565 89.4988 62.5645 88.4962 62.1805C87.4935 61.7752 86.6188 61.1885 85.8722 60.4205C85.1468 59.6312 84.5815 58.6819 84.1762 57.5725C83.7708 56.4632 83.5682 55.1832 83.5682 53.7325C83.5682 51.8125 83.8988 50.1912 84.5602 48.8685C85.2215 47.5245 86.1708 46.5112 87.4082 45.8285C88.6668 45.1245 90.1495 44.7725 91.8562 44.7725C93.4775 44.7725 94.8962 45.1245 96.1122 45.8285C97.3495 46.5112 98.3202 47.5245 99.0242 48.8685C99.7282 50.1912 100.08 51.8125 100.08 53.7325ZM87.6962 53.7325C87.6962 54.9485 87.8348 55.9939 88.1122 56.8685C88.4108 57.7219 88.8588 58.3725 89.4562 58.8205C90.0748 59.2685 90.8642 59.4925 91.8242 59.4925C92.8055 59.4925 93.5948 59.2685 94.1922 58.8205C94.8108 58.3725 95.2588 57.7219 95.5362 56.8685C95.8135 55.9939 95.9522 54.9485 95.9522 53.7325C95.9522 52.4952 95.8028 51.4605 95.5042 50.6285C95.2268 49.7752 94.7788 49.1352 94.1602 48.7085C93.5628 48.2605 92.7842 48.0365 91.8242 48.0365C90.3735 48.0365 89.3175 48.5272 88.6562 49.5085C88.0162 50.4899 87.6962 51.8979 87.6962 53.7325ZM113.368 44.7725C115.31 44.7725 116.824 45.2739 117.912 46.2765C119.022 47.2792 119.576 48.9005 119.576 51.1405V62.4365H115.544V51.9405C115.544 50.6392 115.288 49.6685 114.776 49.0285C114.264 48.3672 113.454 48.0365 112.344 48.0365C110.723 48.0365 109.614 48.5485 109.016 49.5725C108.419 50.5752 108.12 52.0365 108.12 53.9565V62.4365H104.088V45.0925H107.192L107.768 47.3645H107.992C108.376 46.7672 108.846 46.2765 109.4 45.8925C109.955 45.5085 110.574 45.2312 111.256 45.0605C111.939 44.8685 112.643 44.7725 113.368 44.7725ZM130.188 62.7565C128.182 62.7565 126.55 62.0099 125.292 60.5165C124.054 59.0019 123.436 56.7619 123.436 53.7965C123.436 50.8312 124.065 48.5912 125.324 47.0765C126.582 45.5405 128.236 44.7725 130.284 44.7725C131.137 44.7725 131.884 44.8899 132.524 45.1245C133.185 45.3379 133.75 45.6365 134.22 46.0205C134.689 46.4045 135.084 46.8312 135.404 47.3005H135.596C135.532 47.0019 135.468 46.5432 135.404 45.9245C135.34 45.3059 135.308 44.7299 135.308 44.1965V38.1165H139.34V62.4365H136.204L135.468 60.1645H135.308C134.988 60.6339 134.593 61.0712 134.124 61.4765C133.654 61.8605 133.1 62.1699 132.46 62.4045C131.82 62.6392 131.062 62.7565 130.188 62.7565ZM131.404 59.4925C132.897 59.4925 133.953 59.0659 134.572 58.2125C135.19 57.3592 135.5 56.0685 135.5 54.3405V53.8285C135.5 51.9512 135.201 50.5219 134.604 49.5405C134.028 48.5592 132.94 48.0685 131.34 48.0685C130.124 48.0685 129.185 48.5805 128.524 49.6045C127.862 50.6072 127.532 52.0259 127.532 53.8605C127.532 55.6952 127.862 57.0925 128.524 58.0525C129.185 59.0125 130.145 59.4925 131.404 59.4925Z" fill="white"/>
</svg>
