<svg width="149" height="56" viewBox="0 0 149 56" fill="none" xmlns="http://www.w3.org/2000/svg">
<path d="M59.1392 23.2645C56.7713 29.7053 48.4686 42.6826 34.2005 43.0648C19.9324 43.4471 9.55991 28.3732 6.15718 20.7885" stroke="#FDDE6C" stroke-width="3" stroke-linecap="round"/>
<path d="M1.85742 37.9775L6.29509 20.2329L23.823 24.6163" stroke="#FDDE6C" stroke-width="3" stroke-linecap="round"/>
<path d="M84.3555 27.8925H92.9955V39.5085C91.7795 39.9139 90.5315 40.2232 89.2515 40.4365C87.9715 40.6499 86.5209 40.7565 84.8995 40.7565C82.5955 40.7565 80.6435 40.2979 79.0435 39.3805C77.4435 38.4632 76.2275 37.1299 75.3955 35.3805C74.5635 33.6312 74.1475 31.4979 74.1475 28.9805C74.1475 26.5912 74.6169 24.5219 75.5555 22.7725C76.4942 21.0232 77.8382 19.6685 79.5875 18.7085C81.3582 17.7485 83.5129 17.2685 86.0515 17.2685C87.2889 17.2685 88.4835 17.3965 89.6355 17.6525C90.8089 17.8872 91.8755 18.2179 92.8355 18.6445L91.4275 22.0045C90.7022 21.6419 89.8595 21.3432 88.8995 21.1085C87.9609 20.8525 86.9795 20.7245 85.9555 20.7245C84.3982 20.7245 83.0542 21.0659 81.9235 21.7485C80.7929 22.4312 79.9182 23.4019 79.2995 24.6605C78.7022 25.8979 78.4035 27.3592 78.4035 29.0445C78.4035 30.6659 78.6382 32.1059 79.1075 33.3645C79.5769 34.6019 80.3235 35.5725 81.3475 36.2765C82.3715 36.9592 83.7049 37.3005 85.3475 37.3005C85.9022 37.3005 86.3822 37.2792 86.7875 37.2365C87.2142 37.1939 87.5982 37.1405 87.9395 37.0765C88.3022 37.0125 88.6435 36.9485 88.9635 36.8845V31.3805H84.3555V27.8925ZM113.398 31.7325C113.398 33.1832 113.206 34.4632 112.822 35.5725C112.438 36.6819 111.884 37.6312 111.158 38.4205C110.454 39.1885 109.58 39.7752 108.534 40.1805C107.51 40.5645 106.369 40.7565 105.11 40.7565C103.916 40.7565 102.817 40.5645 101.814 40.1805C100.812 39.7752 99.9369 39.1885 99.1903 38.4205C98.4649 37.6312 97.8996 36.6819 97.4943 35.5725C97.0889 34.4632 96.8863 33.1832 96.8863 31.7325C96.8863 29.8125 97.2169 28.1912 97.8783 26.8685C98.5396 25.5245 99.489 24.5112 100.726 23.8285C101.985 23.1245 103.468 22.7725 105.174 22.7725C106.796 22.7725 108.214 23.1245 109.43 23.8285C110.668 24.5112 111.638 25.5245 112.342 26.8685C113.046 28.1912 113.398 29.8125 113.398 31.7325ZM101.014 31.7325C101.014 32.9485 101.153 33.9939 101.43 34.8685C101.729 35.7219 102.177 36.3725 102.774 36.8205C103.393 37.2685 104.182 37.4925 105.142 37.4925C106.124 37.4925 106.913 37.2685 107.51 36.8205C108.129 36.3725 108.577 35.7219 108.854 34.8685C109.132 33.9939 109.27 32.9485 109.27 31.7325C109.27 30.4952 109.121 29.4605 108.822 28.6285C108.545 27.7752 108.097 27.1352 107.478 26.7085C106.881 26.2605 106.102 26.0365 105.142 26.0365C103.692 26.0365 102.636 26.5272 101.974 27.5085C101.334 28.4899 101.014 29.8979 101.014 31.7325ZM121.439 40.4365H117.407V16.1165H121.439V40.4365ZM132.162 40.7565C130.157 40.7565 128.525 40.0099 127.266 38.5165C126.029 37.0019 125.41 34.7619 125.41 31.7965C125.41 28.8312 126.039 26.5912 127.298 25.0765C128.557 23.5405 130.21 22.7725 132.258 22.7725C133.111 22.7725 133.858 22.8899 134.498 23.1245C135.159 23.3379 135.725 23.6365 136.194 24.0205C136.663 24.4045 137.058 24.8312 137.378 25.3005H137.57C137.506 25.0019 137.442 24.5432 137.378 23.9245C137.314 23.3059 137.282 22.7299 137.282 22.1965V16.1165H141.314V40.4365H138.178L137.442 38.1645H137.282C136.962 38.6339 136.567 39.0712 136.098 39.4765C135.629 39.8605 135.074 40.1699 134.434 40.4045C133.794 40.6392 133.037 40.7565 132.162 40.7565ZM133.378 37.4925C134.871 37.4925 135.927 37.0659 136.546 36.2125C137.165 35.3592 137.474 34.0685 137.474 32.3405V31.8285C137.474 29.9512 137.175 28.5219 136.578 27.5405C136.002 26.5592 134.914 26.0685 133.314 26.0685C132.098 26.0685 131.159 26.5805 130.498 27.6045C129.837 28.6072 129.506 30.0259 129.506 31.8605C129.506 33.6952 129.837 35.0925 130.498 36.0525C131.159 37.0125 132.119 37.4925 133.378 37.4925Z" fill="white"/>
</svg>
