<svg width="163" height="34" viewBox="0 0 163 34" fill="none" xmlns="http://www.w3.org/2000/svg">
<g clip-path="url(#clip0_5019_2012)">
<path d="M8.86801 33.4382C6.64034 33.4382 4.8892 32.9732 3.61461 32.0431C2.32853 31.1244 1.41564 29.8269 0.875947 28.1504C0.336253 26.4739 0.0664062 24.539 0.0664062 22.3458V11.5634C0.0664062 9.2898 0.359219 7.32624 0.944844 5.6727C1.51899 4.00769 2.51225 2.71587 3.92464 1.79724C5.33704 0.890096 7.26041 0.436523 9.69478 0.436523C12.0717 0.436523 13.9377 0.832682 15.2927 1.625C16.6591 2.41732 17.6294 3.51393 18.2036 4.91484C18.7892 6.31574 19.082 7.95205 19.082 9.82376V11.8907H12.1406V9.27258C12.1406 8.58361 12.0947 7.94631 12.0028 7.36068C11.911 6.78654 11.7043 6.32149 11.3828 5.96552C11.0498 5.60955 10.5101 5.43156 9.76368 5.43156C9.00581 5.43156 8.45463 5.63251 8.11014 6.03441C7.76566 6.4478 7.54748 6.95878 7.45562 7.56738C7.36376 8.17597 7.31783 8.80752 7.31783 9.46205V24.3266C7.31783 25.0385 7.39247 25.7045 7.54174 26.3246C7.67954 26.9447 7.94364 27.4442 8.33406 27.8231C8.71299 28.2135 9.25843 28.4088 9.97037 28.4088C10.7053 28.4088 11.2737 28.2078 11.6756 27.8059C12.066 27.4155 12.3416 26.9045 12.5023 26.2729C12.6631 25.6299 12.7435 24.9524 12.7435 24.2405V20.4856H9.8498V16.3173H19.1165V32.956H14.4487L14.0525 30.3034C13.6277 31.1991 13.0076 31.9455 12.1923 32.5426C11.377 33.1397 10.2689 33.4382 8.86801 33.4382ZM30.6567 32.956H23.5603V0.86713H32.3964C34.5552 0.86713 36.4269 1.10827 38.0115 1.59055C39.5961 2.06135 40.8305 2.91108 41.7147 4.13974C42.5989 5.36841 43.041 7.10232 43.041 9.34148C43.041 10.662 42.9376 11.839 42.7309 12.8725C42.5243 13.9059 42.1338 14.7958 41.5597 15.5422C40.997 16.3001 40.1875 16.9316 39.1311 17.4369L43.5233 32.956H36.2029L32.672 18.5737H30.6567V32.956ZM30.6567 5.62103V14.4915H32.6375C33.6365 14.4915 34.4116 14.3136 34.9628 13.9576C35.5255 13.6016 35.9159 13.0906 36.134 12.4246C36.3637 11.7471 36.4785 10.9319 36.4785 9.97877C36.4785 8.61232 36.2259 7.54441 35.7207 6.77506C35.2154 6.00571 34.291 5.62103 32.9476 5.62103H30.6567ZM61.8327 32.956H47.3298V0.86713H61.7466V5.70715H54.4262V13.6648H60.0069V18.5737H54.4262V28.1676H61.8327V32.956ZM75.8877 32.956H69.0841V19.8483L62.9695 0.86713H69.6697L72.7184 11.0122L75.4571 0.86713H81.8645L75.8877 19.8483V32.956ZM92.7675 32.956H84.5687V0.86713H92.6814C95.4832 0.86713 97.6649 1.21736 99.2266 1.91781C100.788 2.61827 101.885 3.71488 102.516 5.20765C103.148 6.70042 103.464 8.63528 103.464 11.0122V22.6558C103.464 25.0672 103.148 27.0308 102.516 28.5465C101.885 30.0623 100.794 31.1761 99.2438 31.8881C97.6936 32.6 95.5348 32.956 92.7675 32.956ZM91.6651 5.82772V28.047H92.7675C93.8469 28.047 94.6277 27.8863 95.11 27.5648C95.5808 27.2547 95.8736 26.7839 95.9884 26.1524C96.1147 25.5208 96.1779 24.7285 96.1779 23.7754V9.78931C96.1779 8.83623 96.1032 8.06688 95.954 7.48125C95.8047 6.90711 95.4947 6.48799 95.0239 6.22388C94.5531 5.95978 93.7894 5.82772 92.733 5.82772H91.6651ZM112.455 32.956H105.755L111.818 0.86713H119.896L125.89 32.956H119.345L118.277 26.1868H113.557L112.455 32.956ZM115.9 9.4276L114.194 21.9496H117.605L115.9 9.4276ZM137.447 32.956H130.316V6.13776H125.494V0.86713H142.253V6.13776H137.447V32.956ZM148.781 32.956H142.081L148.144 0.86713H156.239L162.216 32.956H155.671L154.603 26.1868H149.9L148.781 32.956ZM152.226 9.4276L150.52 21.9496H153.931L152.226 9.4276Z" fill="white"/>
</g>
<defs>
<clipPath id="clip0_5019_2012">
<rect width="162.148" height="33" fill="white" transform="translate(0.0664062 0.436523)"/>
</clipPath>
</defs>
</svg>
