<?xml version="1.0" encoding="UTF-8"?>
<svg id="Layer_2" data-name="Layer 2" xmlns="http://www.w3.org/2000/svg" viewBox="0 0 457.09 91.45">
  <defs>
    <style>
      .cls-1 {
        fill: #fff;
      }

      .cls-2 {
        fill: #21fa90;
      }
    </style>
  </defs>
  <g id="Layer_1-2" data-name="Layer 1">
    <g>
      <g>
        <path class="cls-2" d="M26.34,79.16c-1.29,0-2.33-1.04-2.33-2.33v-21.34c0-1.29,1.04-2.33,2.33-2.33s2.33,1.04,2.33,2.33v21.34c0,1.29-1.04,2.33-2.33,2.33Z"/>
        <path class="cls-1" d="M119.68,59.27c-.85,0-1.67-.43-2.13-1.21-.7-1.18-.31-2.69.87-3.39l9.08-5.38v-3.28l-9.08-5.39c-1.18-.7-1.56-2.21-.87-3.39.7-1.18,2.22-1.57,3.39-.87l10.29,6.1c.75.44,1.21,1.25,1.21,2.13v6.1c0,.87-.46,1.68-1.21,2.13l-10.29,6.1c-.4.23-.83.34-1.26.34Z"/>
        <path class="cls-1" d="M13.75,69.48c-.42,0-.85-.11-1.24-.33l-11.28-6.53c-.76-.44-1.24-1.26-1.24-2.14v-29.8c0-.88.47-1.7,1.24-2.14l11.52-6.67c1.18-.68,2.7-.28,3.38.9.69,1.18.28,2.7-.9,3.38l-10.29,5.96v26.94l10.04,5.82c1.18.69,1.59,2.2.9,3.38-.46.79-1.29,1.24-2.14,1.24Z"/>
        <path class="cls-1" d="M51.61,91.45c-.41,0-.83-.1-1.2-.31l-16.91-9.37c-.79-.44-1.28-1.27-1.28-2.17v-6.61c0-1.37,1.11-2.47,2.48-2.47s2.48,1.11,2.48,2.47v5.16l14.4,7.98,10.52-6.16-.09-12.39c-.01-1.37,1.09-2.48,2.46-2.49h.02c1.36,0,2.47,1.1,2.47,2.46l.1,13.83c0,.89-.46,1.71-1.22,2.16l-12.98,7.6c-.39.23-.82.34-1.25.34Z"/>
        <path class="cls-1" d="M89.4,76.68c-.43,0-.87-.11-1.25-.34l-12.15-7.14c-.76-.44-1.22-1.26-1.22-2.13v-7.27c0-1.37,1.11-2.47,2.48-2.47s2.48,1.11,2.48,2.47v5.86l9.66,5.68,15.3-9.16v-26.18l-16.24-9.34c-1.18-.68-1.59-2.19-.91-3.38.68-1.19,2.19-1.6,3.38-.91l17.49,10.06c.77.44,1.24,1.26,1.24,2.14v29.02c0,.87-.46,1.68-1.2,2.12l-17.77,10.64c-.39.23-.83.35-1.27.35Z"/>
      </g>
      <path class="cls-2" d="M78.26,15.02L52.88.32c-.72-.42-1.62-.42-2.34,0l-25.38,14.7c-.72.42-1.16,1.19-1.16,2.02v25.52c0,1.29,1.04,2.33,2.33,2.33s2.33-1.04,2.33-2.33v-24.17l23.05-13.35,23.04,13.35v26.71l-23.04,13.35-12.44-7.21,4.99-3.05c1.1-.67,1.45-2.11.78-3.21-.67-1.1-2.11-1.45-3.21-.77l-8.34,5.09s-.06.04-.09.06c-.05.03-.1.07-.15.1-.09.07-.17.15-.25.23-.03.04-.07.08-.1.12-.06.07-.12.15-.17.23-.02.02-.04.04-.05.07,0,0,0,.02-.01.03-.06.11-.11.22-.16.34-.02.04-.03.09-.04.13-.03.11-.06.23-.08.34,0,.03,0,.05,0,.08,0,.08-.02.17-.02.25v9.33c0,1.29,1.04,2.33,2.33,2.33s2.33-1.04,2.33-2.33v-5.29l13.51,7.83c.36.21.77.32,1.17.32s.81-.1,1.17-.32l25.38-14.7c.72-.42,1.16-1.19,1.16-2.02v-29.4c0-.83-.44-1.6-1.16-2.02Z"/>
    </g>
    <g>
      <path class="cls-1" d="M180.07,28.32c-2.22-.98-4.84-1.47-7.88-1.47h-15.15v33.24h9.4v-8.69h5.75c3.04,0,5.67-.5,7.88-1.5,2.22-1,3.92-2.41,5.1-4.23s1.78-4.01,1.78-6.58-.59-4.68-1.78-6.53c-1.19-1.85-2.89-3.27-5.1-4.25ZM176.04,42.68c-.98.84-2.45,1.26-4.42,1.26h-5.18v-9.69h5.18c1.96,0,3.43.44,4.42,1.31.98.87,1.47,2.05,1.47,3.54s-.49,2.75-1.47,3.58Z"/>
      <rect class="cls-1" x="190.38" y="24.85" width="9.02" height="35.23"/>
      <path class="cls-1" d="M224.73,36.77c-2.3-1.93-5.53-2.9-9.71-2.9-2.03,0-4.06.27-6.1.81-2.04.54-3.79,1.28-5.25,2.23l2.99,6.08c.89-.63,1.97-1.16,3.25-1.57,1.28-.41,2.54-.62,3.77-.62,1.9,0,3.28.39,4.15,1.16.79.7,1.2,1.69,1.28,2.92h-5.1c-2.63,0-4.79.31-6.48.93-1.69.62-2.94,1.51-3.75,2.68-.81,1.17-1.21,2.55-1.21,4.13,0,1.46.37,2.79,1.12,3.99.74,1.2,1.84,2.15,3.28,2.85,1.44.7,3.17,1.04,5.2,1.04,2.25,0,4.06-.45,5.44-1.35.93-.61,1.64-1.44,2.16-2.45v3.38h8.4v-14.29c0-4.08-1.15-7.09-3.44-9.02ZM217.42,54.08c-.81.49-1.72.74-2.73.74s-1.87-.25-2.47-.74c-.6-.49-.9-1.12-.9-1.88,0-.82.29-1.46.88-1.9.59-.44,1.61-.66,3.06-.66h3.89v2.18c-.35,1.01-.93,1.77-1.73,2.26Z"/>
      <path class="cls-1" d="M245.46,53.54c-.82,0-1.48-.25-1.97-.76-.49-.51-.74-1.25-.74-2.23v-8.5h5.89v-6.74h-5.89v-6.74h-9.02v6.74h-3.75v6.74h3.75v8.64c0,3.29.92,5.75,2.75,7.38,1.84,1.63,4.4,2.45,7.69,2.45,1.2,0,2.35-.12,3.44-.36,1.09-.24,2.05-.62,2.87-1.16l-2.28-6.27c-.79.54-1.71.81-2.75.81Z"/>
      <path class="cls-1" d="M262.5,34.78c0-1.17.28-2.03.83-2.59.55-.55,1.27-.83,2.16-.83.54,0,1.04.07,1.5.21.46.14.88.33,1.26.55l2.23-6.36c-.73-.44-1.64-.78-2.73-1-1.09-.22-2.18-.33-3.25-.33-3.42,0-6.06.93-7.93,2.78-1.87,1.85-2.8,4.34-2.8,7.48v.62h-3.75v6.74h3.75v18.04h9.02v-18.04h5.89v-6.74h-6.17v-.52Z"/>
      <path class="cls-1" d="M291.26,35.59c-2.2-1.14-4.71-1.71-7.53-1.71s-5.32.57-7.5,1.71c-2.18,1.14-3.9,2.71-5.15,4.72-1.25,2.01-1.88,4.31-1.88,6.91s.62,4.85,1.88,6.86c1.25,2.01,2.97,3.58,5.15,4.72,2.18,1.14,4.68,1.71,7.5,1.71s5.33-.57,7.53-1.71c2.2-1.14,3.92-2.71,5.18-4.72,1.25-2.01,1.88-4.3,1.88-6.86s-.63-4.9-1.88-6.91c-1.25-2.01-2.98-3.58-5.18-4.72ZM288.41,50.52c-.49.93-1.14,1.64-1.95,2.11-.81.48-1.72.71-2.73.71s-1.92-.24-2.73-.71c-.81-.47-1.46-1.18-1.95-2.11-.49-.93-.74-2.05-.74-3.35s.24-2.44.74-3.32c.49-.89,1.14-1.57,1.95-2.04.81-.47,1.72-.71,2.73-.71s1.92.24,2.73.71,1.46,1.16,1.95,2.04c.49.89.74,1.99.74,3.32s-.25,2.41-.74,3.35Z"/>
      <path class="cls-1" d="M309.89,37.45v-3.15h-8.64v25.78h9.02v-11.82c0-2.25.57-3.87,1.71-4.87s2.63-1.5,4.46-1.5c.32,0,.63,0,.95.02.32.02.68.06,1.09.12v-8.17c-2.44,0-4.5.49-6.2,1.47-.94.55-1.73,1.26-2.4,2.1Z"/>
      <path class="cls-1" d="M359.96,35.11c-1.57-.82-3.35-1.23-5.34-1.23-2.41,0-4.53.6-6.39,1.8-.98.64-1.82,1.4-2.53,2.27-.59-.93-1.32-1.7-2.19-2.3-1.74-1.19-3.78-1.78-6.13-1.78-2.03,0-3.86.47-5.51,1.42-.8.46-1.51,1.03-2.14,1.7v-2.7h-8.64v25.78h9.02v-12.73c0-1.36.2-2.46.59-3.3.4-.84.94-1.46,1.64-1.88.7-.41,1.47-.62,2.33-.62,1.23,0,2.19.42,2.87,1.26.68.84,1.02,2.18,1.02,4.01v13.25h9.02v-12.73c0-1.36.19-2.46.57-3.3.38-.84.91-1.46,1.59-1.88.68-.41,1.46-.62,2.35-.62,1.2,0,2.15.42,2.85,1.26.7.84,1.04,2.18,1.04,4.01v13.25h9.02v-14.72c0-2.66-.45-4.83-1.35-6.5-.9-1.68-2.14-2.93-3.7-3.75Z"/>
      <path class="cls-1" d="M390.21,36.77c-2.3-1.93-5.53-2.9-9.71-2.9-2.03,0-4.06.27-6.1.81-2.04.54-3.79,1.28-5.25,2.23l2.99,6.08c.89-.63,1.97-1.16,3.25-1.57,1.28-.41,2.54-.62,3.77-.62,1.9,0,3.28.39,4.16,1.16.79.7,1.2,1.69,1.27,2.92h-5.1c-2.63,0-4.79.31-6.48.93-1.69.62-2.94,1.51-3.75,2.68-.81,1.17-1.21,2.55-1.21,4.13,0,1.46.37,2.79,1.12,3.99.74,1.2,1.84,2.15,3.28,2.85,1.44.7,3.17,1.04,5.2,1.04,2.25,0,4.06-.45,5.44-1.35.93-.61,1.64-1.44,2.16-2.45v3.38h8.4v-14.29c0-4.08-1.15-7.09-3.44-9.02ZM382.9,54.08c-.81.49-1.72.74-2.73.74s-1.87-.25-2.47-.74c-.6-.49-.9-1.12-.9-1.88,0-.82.29-1.46.88-1.9.59-.44,1.61-.66,3.06-.66h3.89v2.18c-.35,1.01-.93,1.77-1.73,2.26Z"/>
      <path class="cls-1" d="M410.94,53.54c-.82,0-1.48-.25-1.97-.76-.49-.51-.74-1.25-.74-2.23v-8.5h5.89v-6.74h-5.89v-6.74h-9.02v6.74h-3.75v6.74h3.75v8.64c0,3.29.92,5.75,2.75,7.38,1.83,1.63,4.4,2.45,7.69,2.45,1.2,0,2.35-.12,3.44-.36s2.05-.62,2.87-1.16l-2.28-6.27c-.79.54-1.71.81-2.75.81Z"/>
      <rect class="cls-1" x="418.2" y="34.3" width="9.02" height="25.78"/>
      <path class="cls-1" d="M422.71,21.96c-1.68,0-3.01.45-4.01,1.35-1,.9-1.5,2.03-1.5,3.4s.5,2.5,1.5,3.42c1,.92,2.33,1.38,4.01,1.38s3.02-.47,4.01-1.42,1.5-2.14,1.5-3.56c0-1.33-.51-2.42-1.52-3.28-1.01-.85-2.34-1.28-3.99-1.28Z"/>
      <path class="cls-1" d="M447.88,52.51c-.89.55-1.85.83-2.9.83s-1.99-.24-2.83-.71c-.84-.47-1.51-1.17-2.02-2.09-.51-.92-.76-2.03-.76-3.32s.25-2.48.76-3.37c.51-.89,1.18-1.57,2.02-2.04s1.78-.71,2.83-.71,2.01.28,2.9.83c.89.55,1.63,1.43,2.23,2.64l6.98-3.61c-.89-2.22-2.39-3.95-4.51-5.2-2.12-1.25-4.64-1.88-7.55-1.88s-5.43.58-7.65,1.73c-2.22,1.16-3.96,2.73-5.22,4.72-1.27,1.99-1.9,4.29-1.9,6.89s.63,4.85,1.9,6.86c1.27,2.01,3.01,3.58,5.22,4.72s4.76,1.71,7.65,1.71,5.43-.62,7.55-1.88c2.12-1.25,3.62-2.98,4.51-5.2l-6.98-3.56c-.6,1.2-1.35,2.08-2.23,2.64Z"/>
    </g>
  </g>
</svg>