<?xml version="1.0" encoding="UTF-8"?>
<svg width="24" height="24" viewBox="0 0 24 24" fill="none" xmlns="http://www.w3.org/2000/svg">
  <path fill-rule="evenodd" clip-rule="evenodd" d="M17.5 19H6.5C4.01472 19 2 16.9853 2 14.5C2 12.2643 3.68397 10.4239 5.84452 10.0709C6.2671 7.19692 8.72835 5 11.7022 5C14.3785 5 16.6325 6.80231 17.3764 9.27318C19.9633 9.59828 22 11.8275 22 14.5C22 16.9853 19.9853 19 17.5 19ZM6.5 12C5.11929 12 4 13.1193 4 14.5C4 15.8807 5.11929 17 6.5 17H17.5C18.8807 17 20 15.8807 20 14.5C20 13.1193 18.8807 12 17.5 12C17.3287 12 17.1624 11.9748 17.0092 11.9279L16.3387 11.7232L16.1904 11.0422C15.7166 9.13465 13.8663 7.71429 11.7022 7.71429C9.53806 7.71429 7.68783 9.13465 7.21402 11.0422L7.06576 11.7232L6.39525 11.9279C6.24201 11.9748 6.07567 12 6.5 12Z" fill="currentColor"/>
</svg> 